<svg width="24" height="24" viewBox="0 0 24 24" fill="none" xmlns="http://www.w3.org/2000/svg">
<path d="M10.834 18.9999H13.1673V16.6666H10.834V18.9999ZM12.0007 0.333252C5.56065 0.333252 0.333984 5.55992 0.333984 11.9999C0.333984 18.4399 5.56065 23.6666 12.0007 23.6666C18.4407 23.6666 23.6673 18.4399 23.6673 11.9999C23.6673 5.55992 18.4407 0.333252 12.0007 0.333252ZM12.0007 21.3333C6.85565 21.3333 2.66732 17.1449 2.66732 11.9999C2.66732 6.85492 6.85565 2.66659 12.0007 2.66659C17.1457 2.66659 21.334 6.85492 21.334 11.9999C21.334 17.1449 17.1457 21.3333 12.0007 21.3333ZM12.0007 4.99992C9.42232 4.99992 7.33398 7.08825 7.33398 9.66659H9.66732C9.66732 8.38325 10.7173 7.33325 12.0007 7.33325C13.284 7.33325 14.334 8.38325 14.334 9.66659C14.334 11.9999 10.834 11.7083 10.834 15.4999H13.1673C13.1673 12.8749 16.6673 12.5833 16.6673 9.66659C16.6673 7.08825 14.579 4.99992 12.0007 4.99992Z" fill="#323232"/>
</svg>
