<svg width="453" height="350" viewBox="0 0 453 350" fill="none" xmlns="http://www.w3.org/2000/svg">
<g clip-path="url(#clip0_128_2486)">
<path d="M72 326H72.759C73.0322 323.095 73.5729 320.223 74.3739 317.423C77.6803 305.927 76.2339 304.438 81.8124 297.252C87.3909 290.065 87.8063 275.161 87.8063 275.161C87.8063 275.161 90.4921 258.233 87.8063 250.782C85.1205 243.331 84.912 235.878 78.4043 228C78.4043 228 77.1631 238.54 75.6133 243.331C74.0636 248.121 72.5922 252.699 73.7416 264.196C74.891 275.694 75.605 276.651 75.8669 279.632C76.1288 282.612 75.7168 295.177 76.3373 297.252C76.9579 299.326 72.7207 313.698 72.4104 319.872C72.3186 321.727 72.1501 323.843 72 326Z" fill="#215E4B"/>
<path d="M74.0505 325.997C75.1504 323.412 77.0876 320.841 80.4795 319.299C89.347 315.266 95.3361 315.356 99.4544 305.674C103.573 295.992 103.573 282.76 105 280.016C105 280.016 101.197 279.371 97.3944 286.311C93.5915 293.25 91.0131 298.412 88.8184 302.447C86.6237 306.482 83.4535 305.351 80.7608 308.417C78.503 310.986 76.4191 316.964 75.6279 319.997C75.3729 320.983 74.9947 321.931 74.5024 322.818C74.0539 323.626 73.5252 324.607 73.2098 325.305C73.1183 325.529 73.0481 325.762 73 326L74.0505 325.997Z" fill="#3C8F7C"/>
<path d="M49.2798 280.576C48.6481 288.775 53.8019 288.141 54.0125 293.356C54.223 298.571 60.9543 307.412 64.0721 313.694C65.6938 316.961 66.2932 321.958 66.4936 326H69C68.0304 315.768 63.9294 308.646 61.4791 302.94C58.324 295.591 57.8502 292.237 60.5332 286.487C63.2162 280.737 59.2715 265.875 63.0974 259.255C66.9232 252.636 64.9653 242.234 64.0806 238.245C63.1959 234.256 64.1706 231.539 64.9585 227.327C65.7464 223.114 64.0806 217 64.0806 217C63.9379 222.218 60.0153 229.352 57.1761 233.932C54.3368 238.513 48.9725 250.97 49.6042 256.614C50.2359 262.259 49.92 262.684 49.92 262.684C47.9129 270.241 49.9115 272.371 49.2798 280.576Z" fill="#215E4B"/>
<path d="M64.1869 319.269C64.5075 320.257 65.5367 322.783 66.4731 326H68C67.3049 321.904 66.1069 317.151 64.0823 314.427C60.0076 308.94 51.8567 306.574 50.9219 302.593C49.9872 298.611 51.0266 286.67 45.069 280C45.069 280 45.9126 287.426 45.069 289.415C44.2254 291.404 37.1289 300.656 41.3082 308.403C45.4874 316.151 54.892 315.178 57.8176 316.901C60.7433 318.624 63.6655 317.655 64.1869 319.269Z" fill="#3C8F7C"/>
<path d="M60.9256 283.959C60.8209 291.842 66.8899 294.827 66.7851 299.194C66.6804 303.561 68.0405 308.249 69.1928 311.765C69.921 313.99 69.5172 320.193 69.3888 326H71.0784C71.5025 321.727 71.9688 315.562 71.815 312.829C71.6055 309.102 73.2799 306.121 73.4894 299.621C73.6989 293.12 75.059 287.262 72.234 279.059C69.4091 270.856 69.9311 261.055 58.1074 252C58.1074 252 56.014 261.588 57.5836 266.808C59.1533 272.029 61.0304 276.076 60.9256 283.959Z" fill="#3C8F7C"/>
<path d="M73.0697 319H56.7301C56.4686 319 56.2106 319.061 55.9754 319.177C55.7402 319.293 55.5339 319.461 55.372 319.669C55.2101 319.878 55.0968 320.12 55.0405 320.38C54.9843 320.639 54.9866 320.907 55.0473 321.165L61.0088 346.649C61.0985 347.033 61.3134 347.376 61.6188 347.621C61.9242 347.866 62.3022 348 62.6916 348H82.3084C82.6979 348 83.0761 347.867 83.3815 347.621C83.6869 347.376 83.9018 347.033 83.9912 346.649L89.9527 321.165C90.0134 320.907 90.0157 320.639 89.9595 320.38C89.9032 320.12 89.7899 319.878 89.628 319.669C89.4661 319.461 89.2598 319.293 89.0246 319.177C88.7894 319.061 88.5314 319 88.2699 319H73.0697Z" fill="#E6E7E8"/>
<path d="M162.158 299.076H159.076V344.16H162.158V299.076Z" fill="#86B1F2"/>
<path d="M205.925 332.631C205.925 332.631 206.6 339.672 206.156 341.962C206.068 342.345 205.954 342.721 205.814 343.088C205.356 344.373 206.608 348.302 206.608 348.302L223.384 348.361C224.297 348.361 223.687 347.811 222.942 347.303C221.726 346.472 220.746 345.934 216.879 344.191C216.627 344.08 215.706 343.536 215.371 343.346C214.476 342.796 213.66 342.125 212.946 341.354C211.726 340.088 211.54 333.886 211.54 333.886L205.925 332.631Z" fill="#F7A491"/>
<path d="M215.361 343.346C210.939 344.485 207.652 343.785 205.808 343.1C205.352 344.385 204.493 348.729 205.006 348.729C209.213 348.729 212.772 349.489 224.825 349.315C225.258 349.315 225.205 347.892 224.923 347.581C224.147 346.708 215.696 343.534 215.361 343.346Z" fill="#F7CC7F"/>
<path d="M224.912 320.963C224.912 320.963 228.581 327.096 229.174 329.361C229.26 329.743 229.319 330.13 229.352 330.521C229.494 331.872 232.338 334.948 232.338 334.948L247.626 328.346C248.459 327.988 247.663 327.726 246.766 327.564C245.297 327.29 244.168 327.182 239.891 327.143C239.612 327.143 238.538 327.012 238.153 326.973C237.095 326.827 236.062 326.54 235.08 326.12C233.422 325.455 230.558 319.885 230.558 319.885L224.912 320.963Z" fill="#F7A491"/>
<path d="M238.152 326.967C234.632 329.756 231.329 330.425 229.352 330.534C229.494 331.884 230.599 336.177 231.065 335.973C234.892 334.303 238.463 333.583 249.349 328.635C249.74 328.459 249.075 327.19 248.684 327.018C247.599 326.541 238.538 327.002 238.152 326.967Z" fill="#F7CC7F"/>
<path d="M172.735 268.574V272.19L208.3 279.34L217.126 304.687L212.2 301.478L213.336 340.509L205.855 340.557C205.855 340.557 192.893 307.81 197.144 291.341L157.791 291.916C157.791 291.916 139.95 285.333 149.156 265.476L172.735 268.574Z" fill="#F47458"/>
<path d="M172.734 272.19C172.734 272.19 209.628 272.427 212.241 274.355C214.854 276.284 234.521 324.215 234.521 324.215L225.947 327.278C225.947 327.278 208.886 300.093 207.983 298.137C207.079 296.182 200.473 282.018 197.95 280.571C195.427 279.124 172.734 272.19 172.734 272.19Z" fill="#B75742"/>
<path d="M144.293 346.168H174.925C175.603 346.168 176.253 346.438 176.732 346.917C177.211 347.396 177.48 348.045 177.48 348.723C177.48 348.841 177.433 348.954 177.349 349.038C177.265 349.122 177.152 349.169 177.034 349.169H142.184C142.066 349.169 141.953 349.122 141.869 349.038C141.785 348.954 141.738 348.841 141.738 348.723C141.738 348.045 142.007 347.396 142.486 346.917C142.965 346.438 143.615 346.168 144.293 346.168Z" fill="#86B1F2"/>
<path d="M158.093 344.162H161.844C162.376 344.162 162.887 344.373 163.264 344.75C163.641 345.126 163.853 345.636 163.854 346.169C163.854 346.702 163.642 347.213 163.265 347.59C162.888 347.967 162.377 348.179 161.844 348.179H158.093C157.559 348.179 157.048 347.967 156.671 347.59C156.294 347.213 156.082 346.702 156.082 346.169C156.083 345.636 156.295 345.126 156.672 344.75C157.049 344.373 157.56 344.162 158.093 344.162Z" fill="#86B1F2"/>
<path d="M175.345 208.092C175.511 204.077 174.92 200.115 173.125 196.377C171.58 193.162 167.757 191.337 164.269 191.334C153.2 191.318 151.792 205.945 144.743 211.587C142.592 213.312 140.184 214.717 138.146 216.574C130.623 223.441 134.012 236.15 140.92 242.168C145.715 246.343 153.241 248.717 159.157 245.451C162.241 243.748 164.584 240.914 166.253 237.81C168.619 233.406 170.144 228.323 171.828 223.627C173.622 218.628 175.124 213.426 175.345 208.092Z" fill="#13375B"/>
<path d="M205.887 250.141L181.796 243.425C181.796 243.425 176.721 236.607 170.191 227.46C168.057 229.574 166.866 232.821 164.715 234.913L180.66 252.552C180.945 252.867 181.292 253.118 181.679 253.291C182.066 253.464 182.485 253.554 182.909 253.556L205.048 253.628L212.623 254.232V249.384L205.887 250.141Z" fill="#F48C7F"/>
<path d="M171.204 245.035C171.204 245.035 162.935 236.557 160.809 232.874C158.683 229.191 162.257 231.587 165.91 230.619C167.295 230.251 166.945 222.145 169.559 224.779C173.85 229.103 179.244 236.662 179.244 236.662L171.204 245.035Z" fill="#526689"/>
<path d="M159.448 221.061C159.448 221.061 152.028 219.596 148.643 222.43C145.257 225.264 149.368 250.411 149.364 254.581C149.361 258.75 147.041 270.53 147.041 270.53C147.041 270.53 169.532 274.467 173.101 268.207C173.101 268.207 174.118 244.36 173.966 241.362C173.813 238.364 170.481 226.107 169.56 224.785C168.638 223.463 159.448 221.061 159.448 221.061Z" fill="#253350"/>
<path d="M159.405 209.583C159.405 209.583 159.366 209.806 159.295 210.183C158.959 211.994 157.662 218.006 156.786 219.653C155.728 221.65 160.408 228.016 164.914 227.237C166.254 227.007 163.78 221.39 163.899 220.783L164.752 216.498C164.93 215.599 165.11 214.687 165.28 213.831L166.154 209.405L159.405 209.583Z" fill="#F7A491"/>
<path d="M159.295 210.183C159.366 209.806 159.405 209.583 159.405 209.583L166.154 209.415L165.28 213.84C165.11 214.693 164.932 215.601 164.754 216.492C163.711 216.34 162.622 215.833 161.531 214.881C160.416 213.906 159.575 212.657 159.09 211.257C159.174 210.831 159.242 210.463 159.295 210.183Z" fill="#F47458"/>
<path d="M163.946 194.271C163.946 194.271 160.766 193.905 158.771 196.479C156.776 199.053 154.627 207.013 159.581 211.343C164.535 215.673 169.43 210.772 170.156 205.577C170.881 200.383 171.165 194.083 163.946 194.271Z" fill="#F7A491"/>
<path d="M171.622 205.499C171.035 206.647 170.038 207.28 169.404 206.919C168.77 206.557 168.737 205.329 169.33 204.181C169.922 203.033 170.912 202.397 171.546 202.761C172.179 203.124 172.213 204.351 171.622 205.499Z" fill="#F7A491"/>
<path d="M164.302 193.424C164.302 193.424 160.052 200.995 157.01 201.343C153.969 201.691 153.572 205.716 153.572 205.716C153.572 205.716 154.658 196.448 157.67 194.66C160.681 192.873 164.302 193.424 164.302 193.424Z" fill="#13375B"/>
<path d="M157.808 203.242C158.056 204.586 157.557 205.82 156.697 205.996C155.836 206.172 154.937 205.225 154.69 203.882C154.444 202.538 154.94 201.304 155.801 201.128C156.661 200.952 157.561 201.899 157.808 203.242Z" fill="#F7A491"/>
<path d="M192.553 249.339L171.666 244.718C171.666 244.718 164.111 235.013 156.857 226.658C154.721 228.772 153.532 232.019 151.381 234.112L167.328 251.75C167.613 252.065 167.96 252.316 168.347 252.489C168.734 252.662 169.153 252.752 169.577 252.754L191.714 252.826L199.291 253.43V248.576L192.553 249.339Z" fill="#F7A491"/>
<path d="M157.873 244.227C157.873 244.227 149.605 235.749 147.477 232.066C145.349 228.383 146.927 222.211 150.58 221.243C154.234 220.275 165.912 235.864 165.912 235.864L157.873 244.227Z" fill="#526689"/>
<path d="M235.473 225.563H201.017C200.571 225.563 200.135 225.696 199.765 225.944C199.395 226.193 199.107 226.545 198.938 226.957L188.339 252.826H169.339C169.084 252.826 168.839 252.928 168.659 253.108C168.478 253.289 168.377 253.533 168.377 253.788C168.377 253.915 168.402 254.04 168.45 254.156C168.499 254.273 168.57 254.379 168.659 254.468C168.748 254.557 168.854 254.628 168.971 254.676C169.088 254.724 169.213 254.749 169.339 254.749H223.39C224.118 254.749 224.83 254.539 225.44 254.143C226.051 253.748 226.535 253.185 226.832 252.521L237.513 228.729C237.666 228.388 237.731 228.014 237.703 227.641C237.675 227.268 237.554 226.908 237.351 226.593C237.149 226.279 236.871 226.02 236.543 225.84C236.215 225.66 235.847 225.565 235.473 225.563Z" fill="#EA6D36"/>
<path d="M216.916 240.626C216.683 241.8 215.67 242.567 214.653 242.363C213.636 242.16 212.999 241.053 213.232 239.891C213.464 238.729 214.477 237.951 215.494 238.154C216.511 238.358 217.149 239.465 216.916 240.626Z" fill="white"/>
<path d="M165.86 208.484L161.193 208.241C161.193 208.241 161.209 210.019 163.259 210.185C165.758 210.385 165.86 208.484 165.86 208.484Z" fill="white"/>
<path d="M180.462 293.887L178.365 285.114C177.636 282.117 175.953 279.438 173.57 277.48C171.187 275.522 168.232 274.391 165.15 274.258L138.454 273.178L137.631 270.461L165.258 271.578C168.922 271.737 172.436 273.081 175.27 275.409C178.104 277.737 180.105 280.922 180.972 284.486L183.212 293.809C182.445 293.842 181.52 293.868 180.462 293.887Z" fill="#355389"/>
<path d="M144.653 289.213C144.653 289.213 181.331 289.841 185.155 289.213C188.978 288.585 190.631 293.381 189.493 295.892C188.354 298.403 185.211 299.373 180.59 299.608C175.968 299.843 137.501 300.92 136.417 299.893C135.531 299.054 123.869 259.188 119.627 244.61C119.22 243.211 119.385 241.708 120.085 240.431C120.786 239.153 121.964 238.206 123.363 237.796C124.755 237.388 126.253 237.546 127.53 238.236C128.806 238.926 129.759 240.092 130.18 241.481L144.653 289.213Z" fill="#F7CC7F"/>
<path d="M165.51 260.524H312.272C312.651 260.524 313.026 260.45 313.377 260.304C313.727 260.159 314.045 259.946 314.314 259.678C314.582 259.41 314.794 259.091 314.939 258.741C315.084 258.391 315.159 258.015 315.158 257.636C315.158 256.87 314.854 256.136 314.313 255.594C313.771 255.053 313.037 254.749 312.272 254.749H165.51C165.13 254.749 164.755 254.823 164.404 254.968C164.054 255.113 163.736 255.326 163.467 255.594C163.199 255.862 162.986 256.18 162.841 256.531C162.696 256.881 162.621 257.256 162.621 257.636C162.621 258.402 162.925 259.137 163.467 259.678C164.009 260.22 164.744 260.524 165.51 260.524Z" fill="#A8A8A8"/>
<path d="M199.285 349.173H203.394L194.539 260.524H190.428L199.285 349.173Z" fill="#A8A8A8"/>
<path d="M164.357 349.173H160.248L169.104 260.524H173.215L164.357 349.173Z" fill="#A8A8A8"/>
<path d="M311.047 349.173H315.158L306.302 260.524H302.191L311.047 349.173Z" fill="#A8A8A8"/>
<path d="M276.121 349.173H272.01L280.867 260.524H284.978L276.121 349.173Z" fill="#A8A8A8"/>
<path d="M435.487 350H37.5499C37.3329 349.999 37.125 349.913 36.9717 349.759C36.8185 349.605 36.7324 349.397 36.7324 349.18C36.7324 348.963 36.8185 348.755 36.9717 348.602C37.125 348.448 37.3329 348.361 37.5499 348.361H435.487C435.704 348.361 435.912 348.448 436.066 348.602C436.219 348.755 436.305 348.963 436.305 349.18C436.305 349.397 436.219 349.605 436.066 349.759C435.912 349.913 435.704 349.999 435.487 350Z" fill="#3C8F7C"/>
<path d="M203.289 94.7989L203.213 95.3926L265.747 103.392L265.823 102.799L203.289 94.7989Z" fill="#DEEFDA"/>
<path d="M203.736 101.719L204.021 101.193L117.323 54.5109L151.979 45.8899L151.834 45.3091L115.674 54.3016L203.736 101.719Z" fill="#DEEFDA"/>
<path d="M61.906 117.58L61.7148 118.149L175.162 156.24L175.353 155.671L61.906 117.58Z" fill="#DEEFDA"/>
<path d="M394.037 158.772L394.465 158.352L338.024 100.657L337.972 100.633L241.465 58.9836L208.162 54.1099L208.076 54.7025L241.338 59.5703L337.68 101.159L394.037 158.772Z" fill="#DEEFDA"/>
<path d="M214.169 172.48L218.473 141.534L218.254 141.45L169.167 122.184L125.334 103.491L125.098 104.04L168.94 122.735L217.814 141.921L213.576 172.398L214.169 172.48Z" fill="#DEEFDA"/>
<path d="M210.855 172.705L211.133 172.175L171.826 151.628V119.796L131.59 153.754L60.4886 118.846L133.499 98.8871L133.556 98.7541L155.642 48.7728L207.096 54.6694L202.193 95.0734L202.787 95.1458L207.763 54.1433L207.464 54.1101L155.272 48.1255L155.182 48.3289L133.065 98.3825L58.8027 118.687L131.678 154.466L131.827 154.339L171.227 121.087V151.992L210.855 172.705Z" fill="#DEEFDA"/>
<path d="M334.917 104.625L334.931 104.027L268.064 102.663L287.064 46.3377L286.497 46.146L267.236 103.246L334.917 104.625Z" fill="#DEEFDA"/>
<path d="M419.905 140.891L420.194 140.365L344.389 98.8321L295.159 54.4854L294.758 54.9313L344.045 99.3171L419.905 140.891Z" fill="#DEEFDA"/>
<path d="M356.629 150.698L356.424 151.263L394.168 164.956L394.373 164.391L356.629 150.698Z" fill="#DEEFDA"/>
<path d="M356.456 149.984L320.262 159.513L320.415 160.094L356.608 150.565L356.456 149.984Z" fill="#DEEFDA"/>
<path d="M318.299 159.333L276.279 162.279L276.321 162.876L318.341 159.93L318.299 159.333Z" fill="#DEEFDA"/>
<path d="M237.618 117.015L237.712 117.007L329.327 109.585L329.278 108.987L237.759 116.403L209.678 99.728L209.373 100.242L237.618 117.015Z" fill="#DEEFDA"/>
<path d="M258.291 156.509L258.819 156.226L237.728 117.267L219.385 142.172L219.866 142.526L237.65 118.384L258.291 156.509Z" fill="#DEEFDA"/>
<path d="M203.462 97.8779L239.817 60.8594L290.078 46.5296L289.916 45.9546L239.5 60.3255L239.445 60.3822L203.033 97.4594L203.462 97.8779Z" fill="#DEEFDA"/>
<path d="M82.6234 91.2213L82.5059 91.8081L118.985 99.1173L119.103 98.5305L82.6234 91.2213Z" fill="#DEEFDA"/>
<path d="M90.9153 165.087L91.1226 164.526L58.6395 152.5V115.72L85.0383 95.2219L84.9796 95.0263L73.9667 57.7026L73.3917 57.8708L84.3479 94.9989L58.041 115.429V152.917L90.9153 165.087Z" fill="#DEEFDA"/>
<path d="M123.127 110.691L59.4883 150.72L59.808 151.228L123.447 111.2L123.127 110.691Z" fill="#DEEFDA"/>
<path d="M290.059 49.6963L289.887 50.2695L329.191 62.069L329.363 61.4958L290.059 49.6963Z" fill="#DEEFDA"/>
<path d="M269.329 104.549L267.336 159.7L267.934 159.722L269.927 104.57L269.329 104.549Z" fill="#DEEFDA"/>
<path d="M173.678 159.023L197.552 90.8743L196.987 90.6748L173.113 158.825L173.678 159.023Z" fill="#DEEFDA"/>
<path d="M77.4913 55.0053L77.0859 55.4482L127.573 101.646L127.978 101.203L77.4913 55.0053Z" fill="#DEEFDA"/>
<path d="M57.5646 118.611V153.247L91.2036 165.701L91.7453 164.244L59.1175 152.167V151.039L59.6553 151.892L88.4577 133.774L131.748 155.031L132.14 154.702L142.652 145.831L173.527 156.214L172.498 159.116L173.963 159.631L174.988 156.709L175.44 156.861L175.935 155.389L175.501 155.244L175.641 154.841L211.041 173.348L211.76 171.979L176.169 153.36L184.567 129.383L217.285 142.226L213.033 172.807L214.571 173.018L218.85 142.361L219.978 143.192L237.6 119.272L258.11 157.157L259.479 156.417L238.361 117.433L268.493 114.998L266.858 160.176L268.409 160.231L270.052 114.873L329.843 110.029L329.718 108.482L270.108 113.31L270.441 104.118L268.888 104.064L268.55 113.434L237.874 115.918L209.515 99.0785L208.733 100.412L237.14 117.283L218.885 142.046L218.999 141.227L218.427 141.004L185.082 127.916L195.604 97.8815L203.929 102.364L204.667 100.995L196.124 96.3991L198.16 90.5827L196.695 90.0663L194.739 95.6539L146.843 69.8634L155.935 49.2849L206.566 55.0877L201.661 95.4896L202.703 95.6168L202.676 95.8123L203.832 95.959L202.359 97.4571L203.468 98.5445L205.764 96.1976L266.162 103.894L266.357 102.354L207.131 94.8071L240.07 61.2659L242.499 60.5736L276.212 75.1283L266.57 103.71L335.38 105.112L335.409 103.559L268.718 102.19L277.636 75.7502L337.398 101.551L342.424 106.688L320.833 154.454L301.862 120.424L270.3 163.763L271.604 164.606L301.657 123.584L320.878 158.121L343.598 107.889L394.031 159.445L395.142 158.359L344.282 106.371L345.151 104.453L343.735 103.817L343.119 105.186L338.302 100.264L278.139 74.2912L287.043 47.8885L290.667 46.8559L290.235 45.3734L287.638 46.1147L287.661 46.0482L286.19 45.5514L285.825 46.631L242.581 58.9522L241.589 58.5239L207.755 53.5739L207.741 53.6658L207.512 53.6384L154.977 47.6128L154.746 48.1369L145.472 69.1261L118.635 54.675L152.55 46.2379L152.174 44.7319L114.362 54.1372L144.842 70.5499L132.72 97.9832L126.896 99.5752L77.4664 54.3406L76.4161 55.4866L125.114 100.06L62.409 117.206L61.6071 116.936L61.4272 117.472L59.1136 118.106V115.955L85.5847 95.3997L85.4341 94.8912L84.8044 92.7594L119.355 99.675L119.658 98.1534L84.3115 91.0755L74.2902 57.108L72.7999 57.5441L82.5924 90.7313L82.2462 90.6609L81.947 92.1844L83.0931 92.4132L83.805 94.8208L57.5646 115.194V118.53L57.4609 118.56L57.5646 118.611ZM244.842 59.9223L285.23 48.4068L276.709 73.6732L244.842 59.9223ZM208.117 55.1894L239.604 59.7991L239.243 59.9008L239.098 60.0494L205.197 94.5763L203.364 94.3416L208.117 55.1894ZM62.3601 118.828L92.952 129.117L88.3638 132.002L61.8301 118.972L62.3601 118.828ZM183.635 127.349L172.303 122.902V118.771L168.978 121.581L125.083 102.873L124.473 104.3L167.644 122.71L142.315 144.078L96.5506 128.689L124.103 111.359L123.276 110.044L94.6594 128.049L65.0473 118.092L126.48 101.308L127.606 102.341L128.654 101.195L128.25 100.825L133.843 99.2955L133.992 98.9552L146.213 71.2872L194.219 97.1364L183.635 127.349ZM170.75 122.111V122.291L170.605 122.235L170.75 122.111ZM174.777 152.633L172.303 151.338V124.568L183.122 128.814L174.777 152.633ZM144.036 144.659L169.256 123.373L170.75 123.96V152.279L174.259 154.113L174.038 154.749L144.036 144.659ZM90.0028 132.805L94.855 129.756L140.929 145.252L131.523 153.188L90.0028 132.805ZM59.1175 119.373L86.8188 132.974L59.1175 150.397V119.373Z" fill="#DEEFDA"/>
<path d="M418.316 140.564L348.137 102.104L341.454 102.219L341.427 100.668L345.391 100.598L343.768 99.7082L341.963 98.083L340.672 101.568L339.215 101.03L340.721 96.9663L294.084 54.9645L295.124 53.8125L341.3 95.4056L358.864 47.9922L360.32 48.532L342.54 96.5243L344.668 98.4409L348.507 100.543L408.11 103.671L408.138 105.223L351.255 102.049L417.926 138.579L406.38 104.596L407.903 104.298L419.698 139.549L420.84 140.175L420.095 141.538L420.087 141.534L420.913 145.733L399.45 159.556L398.609 158.25L419.188 144.998L418.316 140.564Z" fill="#DEEFDA"/>
<path d="M357.05 150.343L394.99 164.117L394.46 165.578L355.822 151.547L355.943 151.213L320.077 160.657L319.684 159.155L356.798 149.382L357.05 150.343Z" fill="#DEEFDA"/>
<path d="M319.534 159.194L276.457 162.209L276.566 163.76L319.643 160.745L319.534 159.194Z" fill="#DEEFDA"/>
<path d="M289.751 49.1161L289.305 50.6035L329.526 62.6628L329.972 61.1753L289.751 49.1161Z" fill="#DEEFDA"/>
<path d="M359.161 48.6142L339.842 100.756L340.403 100.964L359.722 48.8221L359.161 48.6142Z" fill="#DEEFDA"/>
<path d="M166.757 57.7772C171.236 50.5297 168.993 41.0231 161.745 36.5435C154.498 32.0639 144.991 34.3077 140.511 41.5551C136.032 48.8025 138.276 58.3092 145.523 62.7888C152.77 67.2684 162.277 65.0246 166.757 57.7772Z" fill="white"/>
<path d="M108.211 165.084C109.593 156.57 103.811 148.547 95.2969 147.165C86.7824 145.783 78.7596 151.565 77.3775 160.079C75.9954 168.594 81.7774 176.617 90.2919 177.999C98.8064 179.381 106.829 173.599 108.211 165.084Z" fill="white"/>
<path d="M279.085 102.955C279.085 105.217 278.415 107.429 277.157 109.31C275.9 111.192 274.114 112.658 272.023 113.523C269.933 114.389 267.633 114.616 265.414 114.174C263.195 113.733 261.157 112.643 259.557 111.043C257.957 109.443 256.868 107.404 256.427 105.185C255.985 102.966 256.212 100.666 257.078 98.5759C257.944 96.4857 259.411 94.6993 261.292 93.4425C263.174 92.1858 265.386 91.5152 267.648 91.5156C270.682 91.5161 273.591 92.7216 275.736 94.8668C277.881 97.012 279.085 99.9213 279.085 102.955Z" fill="white"/>
<path d="M346.113 122.422C357.704 120.104 365.22 108.829 362.902 97.2386C360.584 85.6483 349.309 78.1316 337.719 80.4497C326.128 82.7678 318.612 94.0428 320.93 105.633C323.248 117.224 334.523 124.74 346.113 122.422Z" fill="white"/>
<path d="M244.742 68.7425C249.969 66.9091 252.719 61.1858 250.886 55.9591C249.052 50.7324 243.329 47.9816 238.102 49.815C232.876 51.6485 230.125 57.3718 231.958 62.5985C233.792 67.8252 239.515 70.576 244.742 68.7425Z" fill="white"/>
<path d="M372.004 54.7795C372.798 46.7717 366.95 39.6367 358.942 38.8431C350.934 38.0495 343.799 43.8977 343.005 51.9054C342.212 59.9132 348.06 67.0482 356.068 67.8418C364.076 68.6354 371.21 62.7872 372.004 54.7795Z" fill="white"/>
<path d="M78.9412 72.9987C86.0885 72.9987 91.8825 67.2047 91.8825 60.0574C91.8825 52.9102 86.0885 47.1162 78.9412 47.1162C71.794 47.1162 66 52.9102 66 60.0574C66 67.2047 71.794 72.9987 78.9412 72.9987Z" fill="white"/>
<path d="M223.728 99.2324C225.09 88.8397 217.77 79.3101 207.377 77.9474C196.985 76.5848 187.455 83.905 186.092 94.2976C184.73 104.69 192.05 114.22 202.443 115.583C212.835 116.945 222.365 109.625 223.728 99.2324Z" fill="white"/>
<path d="M75.5748 120.773C77.8215 111.254 71.9261 101.716 62.407 99.469C52.8879 97.2223 43.3499 103.118 41.1032 112.637C38.8565 122.156 44.7519 131.694 54.271 133.941C63.79 136.187 73.3281 130.292 75.5748 120.773Z" fill="white"/>
<path d="M419.569 105.353C419.569 107.835 418.833 110.262 417.453 112.327C416.074 114.391 414.114 116 411.82 116.95C409.526 117.9 407.002 118.148 404.567 117.664C402.132 117.179 399.896 115.983 398.141 114.228C396.385 112.472 395.19 110.235 394.706 107.8C394.222 105.365 394.471 102.842 395.421 100.548C396.371 98.2545 397.98 96.2942 400.045 94.9152C402.109 93.5362 404.536 92.8004 407.019 92.8008C410.347 92.8013 413.54 94.124 415.893 96.4779C418.247 98.8318 419.569 102.024 419.569 105.353Z" fill="white"/>
<path d="M228.021 144.323C229.116 139.683 226.242 135.034 221.602 133.939C216.962 132.843 212.313 135.717 211.217 140.357C210.122 144.998 212.996 149.647 217.636 150.742C222.276 151.837 226.926 148.964 228.021 144.323Z" fill="white"/>
<path d="M331.776 156.286C331.776 158.447 331.136 160.559 329.936 162.355C328.736 164.152 327.03 165.552 325.034 166.379C323.038 167.206 320.842 167.423 318.723 167.001C316.604 166.58 314.657 165.54 313.13 164.012C311.602 162.485 310.561 160.539 310.14 158.42C309.718 156.301 309.934 154.105 310.761 152.109C311.588 150.113 312.988 148.407 314.784 147.206C316.58 146.006 318.692 145.365 320.853 145.365C322.287 145.365 323.707 145.647 325.032 146.196C326.358 146.745 327.562 147.549 328.576 148.563C329.59 149.577 330.395 150.781 330.944 152.106C331.493 153.432 331.776 154.852 331.776 156.286Z" fill="white"/>
<path d="M307.268 51.1574C309.395 41.6793 303.437 32.2709 293.959 30.1432C284.481 28.0155 275.072 33.9741 272.944 43.4522C270.817 52.9303 276.775 62.3386 286.253 64.4664C295.731 66.5941 305.14 60.6355 307.268 51.1574Z" fill="white"/>
<path d="M298.057 45.585C298.155 43.2381 297.809 40.9146 296.759 38.7261C295.853 36.8447 293.616 35.7769 291.574 35.7729C285.093 35.7729 284.269 44.3294 280.143 47.6326C278.881 48.6418 277.473 49.4632 276.28 50.5526C271.874 54.5717 273.859 62.0133 277.903 65.5356C280.71 67.9823 285.122 69.3709 288.582 67.4601C290.387 66.4607 291.758 64.8022 292.734 62.9853C294.121 60.4057 295.014 57.431 296 54.6812C297.044 51.7554 297.923 48.7083 298.057 45.585Z" fill="#13375B"/>
<path d="M295.628 67.2155C295.628 67.2155 290.787 62.2518 289.541 60.0946C288.296 57.9374 290.39 59.3436 292.528 58.7764C293.34 58.5613 293.134 53.8147 294.666 55.3578C297.177 57.8885 300.337 62.3144 300.337 62.3144L295.628 67.2155Z" fill="#96D9C9"/>
<path d="M288.746 53.1789C288.746 53.1789 284.402 52.3223 282.419 53.9788C280.436 55.6354 282.844 70.3602 282.842 72.801C282.84 75.2418 281.473 81.6176 281.473 81.6176C281.473 81.6176 294.641 84.4436 296.728 80.7805C296.728 80.7805 297.314 66.8184 297.234 65.0621C297.154 63.3058 295.194 56.1263 294.654 55.3577C294.115 54.589 288.746 53.1789 288.746 53.1789Z" fill="#50BFA5"/>
<path d="M288.718 46.4591C288.718 46.4591 288.694 46.5902 288.653 46.8112C288.458 47.8712 287.699 51.3876 287.186 52.3557C286.566 53.5292 289.306 57.2451 291.943 56.7972C292.725 56.6603 291.28 53.3727 291.356 53.0226C291.489 52.3557 291.669 51.4463 291.855 50.5134C291.958 49.9873 292.064 49.4534 292.164 48.9488L292.676 46.3574L288.718 46.4591Z" fill="#F7A491"/>
<path d="M288.654 46.8112C288.696 46.5902 288.719 46.4591 288.719 46.4591L292.672 46.3613L292.159 48.9527C292.059 49.4514 291.964 49.9814 291.852 50.5056C291.145 50.3805 290.489 50.0522 289.965 49.5609C289.311 48.9904 288.818 48.2588 288.535 47.4389C288.584 47.1906 288.625 46.9754 288.654 46.8112Z" fill="#F47458"/>
<path d="M291.379 37.496C291.379 37.496 289.517 37.2808 288.35 38.7868C287.182 40.2927 285.922 44.9552 288.823 47.4899C291.723 50.0245 294.59 47.1555 295.015 44.1143C295.439 41.0731 295.605 37.3845 291.379 37.496Z" fill="#F7A491"/>
<path d="M294.283 36.7295C294.283 36.7295 290.651 41.9337 287.195 41.2277L287.098 39.0079L287.416 38.1669L289.177 37.0424L292.024 36.3931L294.283 36.7295Z" fill="#13375B"/>
<path d="M295.872 44.0694C295.526 44.7403 294.945 45.1119 294.573 44.9006C294.202 44.6894 294.182 43.9697 294.528 43.2989C294.875 42.628 295.457 42.2545 295.827 42.4677C296.197 42.6808 296.218 43.3967 295.872 44.0694Z" fill="#F7A491"/>
<path d="M287.786 42.747C287.93 43.5293 287.639 44.2569 287.134 44.3586C286.63 44.4603 286.106 43.9087 285.961 43.1206C285.816 42.3324 286.108 41.6127 286.612 41.509C287.117 41.4054 287.641 41.9608 287.786 42.747Z" fill="#F7A491"/>
<path d="M292.5 45.8137L289.762 45.6729C289.762 45.6729 289.772 46.7133 290.97 46.8111C292.439 46.9382 292.5 45.8137 292.5 45.8137Z" fill="white"/>
<path d="M292.5 45.8137L289.762 45.6729C289.762 45.6729 289.772 46.7133 290.97 46.8111C292.439 46.9382 292.5 45.8137 292.5 45.8137Z" fill="white"/>
<path d="M284.056 67.0417C284.056 67.0417 281.206 60.7226 280.772 58.2701C280.338 55.8176 282.444 52.7392 284.648 52.9368C286.853 53.1343 290.156 64.0474 290.156 64.0474L284.056 67.0417Z" fill="#96D9C9"/>
<path d="M147.203 106.016C149.736 95.2837 143.089 84.5301 132.357 81.9971C121.625 79.464 110.871 86.1108 108.338 96.843C105.805 107.575 112.452 118.329 123.184 120.862C133.917 123.395 144.67 116.748 147.203 106.016Z" fill="white"/>
<path d="M183.92 153.155C183.92 155.292 183.286 157.381 182.099 159.158C180.911 160.935 179.224 162.32 177.249 163.138C175.275 163.956 173.102 164.17 171.006 163.753C168.91 163.336 166.985 162.307 165.473 160.796C163.962 159.285 162.933 157.359 162.516 155.263C162.099 153.167 162.313 150.995 163.131 149.02C163.949 147.046 165.334 145.358 167.111 144.171C168.888 142.983 170.977 142.35 173.114 142.35C175.98 142.35 178.728 143.488 180.755 145.514C182.781 147.541 183.92 150.289 183.92 153.155Z" fill="white"/>
<path d="M268.714 179.001C280.344 178.42 289.301 168.521 288.72 156.891C288.139 145.26 278.24 136.303 266.61 136.884C254.979 137.465 246.022 147.364 246.603 158.995C247.184 170.625 257.083 179.583 268.714 179.001Z" fill="white"/>
<path d="M408.184 156.893C408.184 159.612 407.378 162.27 405.868 164.53C404.357 166.791 402.21 168.554 399.699 169.595C397.187 170.635 394.423 170.908 391.756 170.378C389.089 169.847 386.639 168.538 384.717 166.616C382.794 164.693 381.484 162.244 380.954 159.577C380.423 156.91 380.695 154.146 381.736 151.634C382.776 149.122 384.538 146.975 386.799 145.464C389.06 143.954 391.717 143.147 394.436 143.147C398.082 143.147 401.578 144.596 404.156 147.173C406.734 149.751 408.183 153.247 408.184 156.893Z" fill="white"/>
<path d="M296.002 122.837C296.002 123.975 296.339 125.088 296.971 126.034C297.603 126.98 298.501 127.718 299.553 128.154C300.604 128.59 301.761 128.704 302.877 128.482C303.993 128.261 305.019 127.713 305.824 126.908C306.629 126.103 307.177 125.078 307.399 123.962C307.621 122.846 307.507 121.689 307.072 120.637C306.636 119.586 305.899 118.687 304.953 118.055C304.006 117.422 302.894 117.085 301.756 117.085C300.23 117.085 298.767 117.691 297.688 118.77C296.609 119.848 296.002 121.311 296.002 122.837Z" fill="white"/>
<path d="M325.879 61.7902C325.879 62.4676 326.079 63.1299 326.455 63.6933C326.831 64.2568 327.366 64.696 327.992 64.9555C328.617 65.215 329.306 65.2831 329.97 65.1512C330.635 65.0192 331.245 64.6932 331.724 64.2144C332.203 63.7355 332.53 63.1254 332.662 62.461C332.794 61.7967 332.727 61.108 332.467 60.4821C332.208 59.8563 331.769 59.3213 331.206 58.9449C330.643 58.5686 329.981 58.3677 329.303 58.3677C328.854 58.3674 328.409 58.4558 327.993 58.6276C327.578 58.7995 327.2 59.0516 326.882 59.3694C326.564 59.6873 326.312 60.0647 326.14 60.48C325.967 60.8954 325.879 61.3406 325.879 61.7902Z" fill="white"/>
<path d="M361.096 152.87C362.139 150.352 360.943 147.464 358.425 146.421C355.906 145.377 353.018 146.574 351.975 149.092C350.932 151.611 352.128 154.499 354.647 155.542C357.165 156.585 360.053 155.389 361.096 152.87Z" fill="white"/>
<path d="M203.246 54.4069C203.246 55.3709 203.532 56.3132 204.067 57.1147C204.603 57.9161 205.364 58.5408 206.255 58.9097C207.145 59.2786 208.125 59.3751 209.071 59.187C210.016 58.999 210.884 58.5348 211.566 57.8532C212.248 57.1716 212.712 56.3032 212.9 55.3578C213.088 54.4123 212.991 53.4324 212.623 52.5418C212.254 51.6513 211.629 50.8901 210.828 50.3546C210.026 49.819 209.084 49.5332 208.12 49.5332C206.827 49.5332 205.588 50.0467 204.674 50.9607C203.76 51.8747 203.246 53.1143 203.246 54.4069Z" fill="white"/>
<path d="M119.835 57.7424C121.677 55.9001 121.677 52.9133 119.835 51.0711C117.993 49.2289 115.006 49.2289 113.164 51.0711C111.322 52.9133 111.322 55.9001 113.164 57.7424C115.006 59.5846 117.993 59.5846 119.835 57.7424Z" fill="white"/>
<path d="M166.238 122.461C166.238 123.599 166.576 124.711 167.208 125.657C167.84 126.603 168.738 127.34 169.789 127.775C170.84 128.211 171.997 128.325 173.112 128.103C174.228 127.881 175.253 127.333 176.057 126.529C176.862 125.724 177.41 124.699 177.632 123.583C177.853 122.468 177.74 121.311 177.304 120.26C176.869 119.209 176.132 118.311 175.186 117.679C174.24 117.047 173.128 116.709 171.99 116.709C170.465 116.709 169.002 117.315 167.923 118.394C166.844 119.473 166.238 120.936 166.238 122.461Z" fill="white"/>
<path d="M208.119 172.439C208.119 173.577 208.456 174.69 209.088 175.636C209.72 176.583 210.618 177.32 211.67 177.756C212.721 178.192 213.878 178.306 214.994 178.084C216.111 177.863 217.136 177.315 217.941 176.51C218.746 175.706 219.294 174.68 219.516 173.564C219.738 172.448 219.624 171.291 219.189 170.239C218.754 169.188 218.016 168.289 217.07 167.657C216.124 167.025 215.011 166.687 213.873 166.687C212.347 166.687 210.884 167.293 209.805 168.372C208.726 169.45 208.12 170.913 208.119 172.439Z" fill="white"/>
<path d="M233.955 116.71C233.955 117.448 234.174 118.17 234.584 118.784C234.995 119.398 235.578 119.876 236.26 120.159C236.942 120.442 237.693 120.515 238.417 120.371C239.141 120.227 239.806 119.872 240.329 119.35C240.851 118.827 241.206 118.162 241.35 117.438C241.494 116.714 241.421 115.963 241.138 115.281C240.855 114.599 240.377 114.016 239.763 113.605C239.149 113.195 238.427 112.976 237.689 112.976C236.698 112.976 235.749 113.369 235.049 114.07C234.348 114.77 233.955 115.719 233.955 116.71Z" fill="white"/>
<path d="M127.777 154.114C127.777 154.876 128.003 155.622 128.426 156.257C128.85 156.891 129.452 157.386 130.157 157.678C130.862 157.97 131.637 158.047 132.385 157.898C133.134 157.75 133.821 157.383 134.361 156.843C134.9 156.304 135.268 155.617 135.417 154.869C135.566 154.12 135.489 153.345 135.197 152.64C134.906 151.935 134.411 151.333 133.777 150.909C133.143 150.485 132.397 150.259 131.634 150.259C130.612 150.259 129.631 150.665 128.908 151.388C128.184 152.111 127.778 153.091 127.777 154.114Z" fill="white"/>
<path d="M58.7609 158.439C61.9295 158.213 64.3155 155.462 64.09 152.293C63.8645 149.124 61.1131 146.738 57.9444 146.964C54.7757 147.189 52.3898 149.941 52.6153 153.109C52.8407 156.278 55.5922 158.664 58.7609 158.439Z" fill="white"/>
<path d="M78.9395 91.5156C78.9395 92.6535 79.277 93.7659 79.9094 94.7119C80.5417 95.658 81.4405 96.3952 82.492 96.8303C83.5435 97.2655 84.7004 97.3789 85.8163 97.1563C86.9323 96.9338 87.9572 96.3852 88.7613 95.58C89.5654 94.7748 90.1126 93.7492 90.3336 92.6329C90.5547 91.5166 90.4397 90.3599 90.0031 89.309C89.5666 88.2581 88.8281 87.3603 87.8812 86.7292C86.9343 86.0982 85.8214 85.7621 84.6835 85.7637C83.1595 85.7663 81.6988 86.3733 80.6219 87.4517C79.5451 88.53 78.94 89.9916 78.9395 91.5156Z" fill="white"/>
<path d="M414.297 142.35C414.297 143.487 414.635 144.599 415.267 145.545C415.899 146.49 416.798 147.227 417.849 147.662C418.9 148.097 420.056 148.211 421.172 147.989C422.288 147.767 423.312 147.219 424.117 146.414C424.921 145.61 425.469 144.585 425.69 143.469C425.912 142.353 425.798 141.197 425.363 140.146C424.927 139.095 424.19 138.197 423.244 137.565C422.298 136.933 421.186 136.596 420.049 136.596C419.293 136.596 418.545 136.745 417.847 137.034C417.149 137.323 416.515 137.747 415.981 138.281C415.447 138.815 415.023 139.45 414.734 140.148C414.445 140.846 414.297 141.594 414.297 142.35Z" fill="white"/>
<path d="M200.198 84.4885C205.015 81.9304 210.628 84.2226 211.048 90.9425C211.469 97.6625 206.726 100.031 202.173 99.587C197.62 99.143 193.142 87.3146 200.198 84.4885Z" fill="#13375B"/>
<path d="M203.104 102.351C203.104 103.298 203.385 104.225 203.911 105.013C204.438 105.801 205.186 106.415 206.061 106.778C206.937 107.14 207.9 107.235 208.83 107.05C209.759 106.865 210.613 106.409 211.283 105.739C211.953 105.069 212.41 104.215 212.595 103.285C212.78 102.356 212.685 101.393 212.322 100.517C211.959 99.6415 211.345 98.8931 210.557 98.3666C209.769 97.8401 208.843 97.5591 207.895 97.5591C206.624 97.5591 205.406 98.0639 204.507 98.9625C203.608 99.8611 203.104 101.08 203.104 102.351Z" fill="#13375B"/>
<path d="M197.612 105.1L181.251 104.537C181.251 104.537 168.497 100.553 168.104 100.442C167.711 100.33 165.757 95.2275 165.237 95.6636C164.717 96.0998 166.367 98.2198 165.702 98.5973C165.037 98.9747 158.812 96.9388 158.824 97.4434C158.844 98.39 162.585 98.8437 162.515 99.2877C162.444 99.7316 158.656 98.4389 158.28 99.1371C157.905 99.8353 161.981 100.013 162.09 100.367C162.2 100.721 158.233 100.729 158.527 101.476C158.685 101.883 162.057 101.382 161.965 101.887C161.873 102.391 159.348 103.187 159.577 103.637C159.806 104.087 161.607 102.677 162.974 102.873C164.341 103.068 165.429 102.47 167.511 103.428C169.594 104.386 176.547 108.646 181.225 109.129C185.903 109.612 196.238 110.713 196.238 110.713L197.612 105.1Z" fill="#F29383"/>
<path d="M200.728 104.353C209.688 104.77 201.81 112.274 201.81 112.274L188.571 110.395C188.18 107.754 188.851 104.604 188.884 103.902C191.634 103.731 198.52 104.242 200.728 104.353Z" fill="#C24C32"/>
<path d="M207.653 102.92C207.653 102.92 211.504 102.851 213.552 105.087C215.599 107.322 210.335 124.75 209.963 127.595C209.591 130.441 211.86 138.008 211.86 138.008C211.86 138.008 199.705 140.46 196.232 138.157C196.232 138.157 195.86 117.691 196.232 115.665C196.603 113.639 199.705 105.364 200.45 104.551C201.195 103.737 207.653 102.92 207.653 102.92Z" fill="#F47458"/>
<path d="M205.942 95.9904C205.942 95.9904 205.967 96.1429 206.016 96.4031C206.247 97.6489 207.135 101.785 207.735 102.922C208.461 104.291 205.251 108.679 202.165 108.143C201.246 107.985 202.948 104.117 202.86 103.708C202.703 102.925 202.492 101.854 202.273 100.757C202.15 100.139 202.026 99.5107 201.909 98.9201C201.58 97.244 201.311 95.875 201.311 95.875L205.942 95.9904Z" fill="#F7A491"/>
<path d="M206.006 96.4031C205.957 96.1429 205.932 95.9904 205.932 95.9904L201.305 95.875C201.305 95.875 201.575 97.244 201.903 98.9201C202.02 99.5068 202.142 100.131 202.265 100.747C203.093 100.599 203.861 100.213 204.473 99.6359C205.238 98.964 205.815 98.1047 206.147 97.1423C206.09 96.849 206.041 96.5967 206.006 96.4031Z" fill="#F47458"/>
<path d="M202.813 85.4489C202.813 85.4489 204.993 85.1966 206.36 86.9685C207.727 88.7405 209.202 94.2205 205.805 97.201C202.408 100.182 199.054 96.8099 198.557 93.2309C198.06 89.6518 197.87 85.3198 202.813 85.4489Z" fill="#F7A491"/>
<path d="M197.556 93.1778C197.963 93.9601 198.644 94.406 199.076 94.1557C199.508 93.9053 199.534 93.0604 199.129 92.2723C198.724 91.4841 198.043 91.0441 197.609 91.2944C197.175 91.5447 197.152 92.3877 197.556 93.1778Z" fill="#F7A491"/>
<path d="M202.574 84.8622C202.574 84.8622 205.486 90.0743 207.571 90.3149C209.656 90.5554 209.93 93.3248 209.93 93.3248C209.93 93.3248 209.185 86.9451 207.121 85.7149C205.058 84.4847 202.574 84.8622 202.574 84.8622Z" fill="#13375B"/>
<path d="M207.026 91.6248C206.856 92.5499 207.196 93.3987 207.787 93.52C208.378 93.6412 208.994 92.99 209.156 92.0649C209.318 91.1398 208.986 90.2891 208.395 90.1678C207.805 90.0466 207.194 90.6998 207.026 91.6248Z" fill="#F7A491"/>
<path d="M202.489 120.584C202.489 120.584 211.896 115.763 213.969 113.195C216.042 110.627 215.588 105.706 212.915 104.525C210.241 103.344 199.373 114.23 199.373 114.23L202.489 120.584Z" fill="#C24C32"/>
<path d="M244.707 53.0127C242.108 51.632 239.079 52.87 238.852 56.4959C238.625 60.1219 241.185 61.399 243.642 61.1584C246.098 60.9179 248.513 54.5343 244.707 53.0127Z" fill="#13375B"/>
<path d="M240.419 58.9445C240.419 59.189 240.347 59.428 240.211 59.6313C240.075 59.8345 239.882 59.9929 239.656 60.0865C239.43 60.18 239.182 60.2045 238.942 60.1568C238.702 60.1091 238.482 59.9914 238.309 59.8186C238.136 59.6457 238.019 59.4255 237.971 59.1857C237.923 58.9459 237.948 58.6974 238.041 58.4715C238.135 58.2457 238.293 58.0526 238.497 57.9168C238.7 57.781 238.939 57.7085 239.183 57.7085C239.511 57.7085 239.826 57.8387 240.057 58.0705C240.289 58.3023 240.419 58.6167 240.419 58.9445Z" fill="#13375B"/>
<path d="M241.654 60.112C241.654 60.3566 241.582 60.5959 241.446 60.7995C241.311 61.003 241.118 61.1618 240.892 61.2555C240.666 61.3493 240.417 61.374 240.177 61.3263C239.937 61.2787 239.717 61.161 239.544 60.988C239.371 60.815 239.253 60.5946 239.205 60.3546C239.158 60.1147 239.182 59.866 239.276 59.6401C239.37 59.4141 239.529 59.2211 239.732 59.0854C239.936 58.9498 240.175 58.8775 240.42 58.8779C240.747 58.8784 241.06 59.0086 241.292 59.24C241.523 59.4713 241.653 59.7849 241.654 60.112Z" fill="#13375B"/>
<path d="M243.275 60.9997C243.275 61.2442 243.202 61.4832 243.066 61.6864C242.931 61.8897 242.738 62.0481 242.512 62.1417C242.286 62.2352 242.037 62.2597 241.798 62.212C241.558 62.1643 241.338 62.0466 241.165 61.8737C240.992 61.7009 240.874 61.4806 240.826 61.2409C240.779 61.0011 240.803 60.7526 240.897 60.5267C240.99 60.3008 241.149 60.1078 241.352 59.972C241.555 59.8362 241.794 59.7637 242.039 59.7637C242.367 59.7637 242.681 59.8939 242.913 60.1257C243.145 60.3575 243.275 60.6719 243.275 60.9997Z" fill="#13375B"/>
<path d="M239.878 56.9123C239.878 57.1568 239.806 57.3959 239.67 57.5992C239.534 57.8025 239.341 57.9609 239.115 58.0544C238.889 58.1479 238.64 58.1723 238.4 58.1244C238.161 58.0766 237.94 57.9587 237.768 57.7856C237.595 57.6126 237.477 57.3921 237.43 57.1522C237.382 56.9123 237.407 56.6638 237.501 56.4379C237.595 56.2121 237.753 56.0192 237.957 55.8836C238.161 55.748 238.4 55.6759 238.644 55.6763C238.807 55.676 238.967 55.7078 239.117 55.7699C239.267 55.8319 239.403 55.923 239.518 56.0378C239.633 56.1527 239.724 56.2891 239.786 56.4391C239.847 56.5892 239.879 56.75 239.878 56.9123Z" fill="#13375B"/>
<path d="M240.302 54.7863C240.302 55.0309 240.23 55.2699 240.094 55.4732C239.958 55.6765 239.765 55.835 239.539 55.9285C239.313 56.022 239.064 56.0463 238.824 55.9985C238.584 55.9506 238.364 55.8327 238.191 55.6596C238.019 55.4866 237.901 55.2662 237.854 55.0263C237.806 54.7864 237.831 54.5378 237.925 54.312C238.019 54.0861 238.177 53.8932 238.381 53.7577C238.584 53.6221 238.824 53.5499 239.068 53.5503C239.23 53.5503 239.391 53.5823 239.541 53.6444C239.691 53.7066 239.827 53.7976 239.941 53.9124C240.056 54.0272 240.147 54.1635 240.209 54.3135C240.271 54.4634 240.302 54.6241 240.302 54.7863Z" fill="#13375B"/>
<path d="M241.732 53.4372C241.732 53.6818 241.659 53.9208 241.523 54.1241C241.387 54.3274 241.194 54.4858 240.968 54.5793C240.742 54.6728 240.494 54.6972 240.254 54.6494C240.014 54.6015 239.794 54.4836 239.621 54.3105C239.448 54.1375 239.331 53.917 239.283 53.6771C239.236 53.4373 239.261 53.1887 239.354 52.9628C239.448 52.737 239.607 52.5441 239.811 52.4085C240.014 52.2729 240.253 52.2008 240.498 52.2012C240.825 52.2017 241.139 52.3321 241.371 52.5639C241.602 52.7956 241.732 53.1097 241.732 53.4372Z" fill="#13375B"/>
<path d="M243.621 52.8757C243.621 53.1201 243.548 53.3591 243.412 53.5624C243.276 53.7657 243.083 53.9241 242.857 54.0176C242.632 54.1112 242.383 54.1357 242.143 54.088C241.904 54.0403 241.683 53.9226 241.51 53.7497C241.338 53.5768 241.22 53.3566 241.172 53.1168C241.124 52.877 241.149 52.6285 241.243 52.4027C241.336 52.1768 241.494 51.9838 241.698 51.848C241.901 51.7121 242.14 51.6396 242.384 51.6396C242.547 51.6394 242.708 51.6712 242.858 51.7332C243.008 51.7952 243.144 51.8863 243.259 52.0011C243.374 52.1159 243.465 52.2523 243.527 52.4024C243.589 52.5524 243.621 52.7133 243.621 52.8757Z" fill="#13375B"/>
<path d="M245.589 53.03C245.589 53.2744 245.517 53.5134 245.381 53.7167C245.245 53.9199 245.052 54.0784 244.826 54.1719C244.6 54.2655 244.352 54.29 244.112 54.2423C243.872 54.1946 243.652 54.0769 243.479 53.904C243.306 53.7311 243.189 53.5109 243.141 53.2711C243.093 53.0314 243.118 52.7828 243.211 52.557C243.305 52.3311 243.463 52.1381 243.667 52.0023C243.87 51.8664 244.109 51.7939 244.353 51.7939C244.681 51.7939 244.995 51.9242 245.227 52.156C245.459 52.3878 245.589 52.7022 245.589 53.03Z" fill="#13375B"/>
<path d="M247.054 54.5656C247.054 54.8101 246.982 55.0491 246.846 55.2523C246.71 55.4556 246.517 55.614 246.291 55.7076C246.065 55.8011 245.817 55.8256 245.577 55.7779C245.337 55.7302 245.117 55.6125 244.944 55.4396C244.771 55.2668 244.653 55.0465 244.606 54.8068C244.558 54.567 244.583 54.3185 244.676 54.0926C244.77 53.8668 244.928 53.6737 245.131 53.5379C245.335 53.4021 245.574 53.3296 245.818 53.3296C246.146 53.3296 246.46 53.4598 246.692 53.6916C246.924 53.9234 247.054 54.2378 247.054 54.5656Z" fill="#13375B"/>
<path d="M247.013 58.5085C247.013 58.7531 246.941 58.9921 246.805 59.1954C246.669 59.3987 246.476 59.5571 246.25 59.6506C246.024 59.7441 245.775 59.7685 245.535 59.7206C245.295 59.6728 245.075 59.5549 244.902 59.3818C244.73 59.2088 244.612 58.9883 244.565 58.7484C244.517 58.5085 244.542 58.26 244.636 58.0341C244.73 57.8083 244.888 57.6154 245.092 57.4798C245.295 57.3442 245.534 57.2721 245.779 57.2725C245.941 57.2725 246.102 57.3045 246.252 57.3666C246.402 57.4287 246.538 57.5198 246.652 57.6346C246.767 57.7494 246.858 57.8857 246.92 58.0356C246.982 58.1856 247.013 58.3463 247.013 58.5085Z" fill="#13375B"/>
<path d="M245.781 60.3586C245.781 60.6032 245.709 60.8425 245.573 61.046C245.438 61.2496 245.244 61.4083 245.019 61.5021C244.793 61.5959 244.544 61.6206 244.304 61.5729C244.064 61.5253 243.844 61.4075 243.671 61.2346C243.498 61.0616 243.38 60.8412 243.332 60.6012C243.285 60.3613 243.309 60.1126 243.403 59.8866C243.497 59.6607 243.656 59.4677 243.859 59.332C244.063 59.1963 244.302 59.1241 244.547 59.1245C244.874 59.125 245.187 59.2552 245.419 59.4865C245.65 59.7179 245.78 60.0315 245.781 60.3586Z" fill="#13375B"/>
<path d="M247.517 56.4235C247.517 56.6681 247.445 56.9072 247.31 57.1108C247.174 57.3143 246.981 57.473 246.755 57.5669C246.529 57.6607 246.281 57.6855 246.041 57.638C245.801 57.5905 245.581 57.473 245.408 57.3002C245.235 57.1274 245.117 56.9072 245.069 56.6673C245.021 56.4275 245.045 56.1789 245.139 55.9529C245.232 55.727 245.391 55.5338 245.594 55.3979C245.797 55.262 246.036 55.1895 246.281 55.1895C246.608 55.1895 246.922 55.3194 247.154 55.5508C247.386 55.7822 247.516 56.0961 247.517 56.4235Z" fill="#13375B"/>
<path d="M244.079 60.8239C244.079 61.0685 244.007 61.3075 243.871 61.5108C243.735 61.7141 243.542 61.8726 243.316 61.9661C243.09 62.0596 242.841 62.0839 242.602 62.0361C242.362 61.9882 242.142 61.8703 241.969 61.6972C241.796 61.5242 241.678 61.3038 241.631 61.0639C241.583 60.824 241.608 60.5754 241.702 60.3496C241.796 60.1237 241.955 59.9308 242.158 59.7952C242.362 59.6597 242.601 59.5875 242.845 59.5879C243.173 59.5884 243.487 59.7189 243.718 59.9506C243.95 60.1824 244.079 60.4965 244.079 60.8239Z" fill="#13375B"/>
<path d="M246.104 64.1309L254.932 63.8258C254.932 63.8258 261.812 61.6745 262.025 61.6177C262.239 61.561 263.293 58.8034 263.572 59.0381C263.852 59.2728 262.962 60.4169 263.322 60.6242C263.682 60.8315 267.038 59.7285 267.038 60.0023C267.038 60.5108 265.008 60.7572 265.047 60.9958C265.086 61.2344 267.13 60.5382 267.331 60.9156C267.533 61.2931 265.334 61.387 265.276 61.5786C265.217 61.7703 267.357 61.7742 267.198 62.1771C267.112 62.3961 265.293 62.1262 265.344 62.3981C265.395 62.6699 266.754 63.1002 266.631 63.3427C266.508 63.5852 265.536 62.8264 264.799 62.9281C264.061 63.0298 263.475 62.711 262.35 63.2273C261.225 63.7436 257.476 66.0416 254.951 66.3037C252.426 66.5658 246.851 67.1564 246.851 67.1564L246.104 64.1309Z" fill="#F29383"/>
<path d="M244.423 63.7282C239.589 63.9531 243.837 68.0015 243.837 68.0015L250.981 66.9865C251.196 65.5627 250.829 63.8573 250.811 63.4837C249.33 63.3918 245.615 63.6715 244.423 63.7282Z" fill="#C24C32"/>
<path d="M240.685 62.9537C240.685 62.9537 238.607 62.9166 237.502 64.1272C236.397 65.3378 239.237 74.7372 239.439 76.2724C239.64 77.8077 238.416 81.8894 238.416 81.8894C238.416 81.8894 244.973 83.2134 246.847 81.9695C246.847 81.9695 247.043 70.9273 246.847 69.8302C246.652 68.733 244.973 64.2739 244.571 63.8358C244.168 63.3977 240.685 62.9537 240.685 62.9537Z" fill="#F47458"/>
<path d="M241.614 59.2144C241.614 59.2144 241.6 59.2966 241.573 59.4374C241.45 60.1102 240.97 62.3417 240.646 62.9578C240.255 63.699 241.985 66.0635 243.652 65.774C244.147 65.688 243.233 63.6012 243.276 63.3802C243.36 62.9578 243.472 62.3808 243.591 61.7882C243.658 61.4557 243.724 61.1154 243.787 60.7986L244.109 59.1538L241.614 59.2144Z" fill="#BF7154"/>
<path d="M241.572 59.4374C241.6 59.2966 241.613 59.2144 241.613 59.2144L244.109 59.1519L243.786 60.7966C243.724 61.1135 243.657 61.4499 243.591 61.7745C243.143 61.6947 242.729 61.4868 242.398 61.1761C241.985 60.8137 241.674 60.3499 241.496 59.8305L241.572 59.4374Z" fill="#A85D42"/>
<path d="M243.297 53.527C242.935 53.4995 242.573 53.5596 242.239 53.7022C241.906 53.8449 241.612 54.0659 241.382 54.3465C240.645 55.3029 239.851 58.258 241.683 59.8676C243.516 61.4772 245.325 59.6564 245.595 57.726C245.865 55.7957 245.965 53.4586 243.297 53.527Z" fill="#BF7154"/>
<path d="M246.134 57.6947C245.915 58.1191 245.548 58.3558 245.313 58.2208C245.078 58.0859 245.067 57.6341 245.286 57.2058C245.505 56.7775 245.872 56.5428 246.105 56.6777C246.338 56.8127 246.352 57.2723 246.134 57.6947Z" fill="#BF7154"/>
<path d="M243.425 53.2119C243.425 53.2119 241.861 56.0223 240.73 56.1455C239.6 56.2688 239.457 57.7688 239.457 57.7688C239.457 57.7688 239.86 54.3267 240.973 53.6617C242.086 52.9968 243.425 53.2119 243.425 53.2119Z" fill="#13375B"/>
<path d="M241.023 56.8597C241.115 57.3585 240.931 57.8181 240.613 57.8826C240.294 57.9471 239.963 57.5971 239.871 57.1003C239.779 56.6035 239.963 56.1439 240.282 56.0774C240.601 56.0109 240.933 56.361 241.023 56.8597Z" fill="#BF7154"/>
<path d="M243.472 72.4839C243.472 72.4839 238.387 69.8847 237.278 68.498C236.169 67.1114 236.404 64.4575 237.846 63.8199C239.287 63.1823 245.152 69.0554 245.152 69.0554L243.472 72.4839Z" fill="#C24C32"/>
<path d="M348.569 89.7182C344.519 87.5767 338.438 88.6954 336.86 96.6827C335.919 101.441 333.578 106.442 333.578 106.442C339.711 109.18 346.308 109.295 351.598 108.372C351.598 108.372 356.185 92.7614 348.569 89.7182Z" fill="#F47458"/>
<path d="M351.359 111.955L369.018 111.347C369.018 111.347 382.781 107.044 383.207 106.927C383.633 106.81 385.749 101.3 386.299 101.772C386.848 102.243 385.08 104.529 385.798 104.942C386.516 105.355 393.23 103.151 393.22 103.696C393.199 104.717 389.162 105.208 389.238 105.687C389.315 106.166 393.404 104.772 393.807 105.525C394.21 106.278 389.813 106.469 389.7 106.853C389.587 107.236 393.866 107.244 393.547 108.048C393.377 108.486 389.739 107.946 389.831 108.492C389.923 109.037 392.655 109.896 392.409 110.381C392.162 110.866 390.216 109.346 388.742 109.55C387.267 109.753 386.094 109.116 383.852 110.148C381.611 111.181 374.095 115.781 369.051 116.301C364.007 116.821 352.85 118.01 352.85 118.01L351.359 111.955Z" fill="#F29383"/>
<path d="M347.997 111.149C338.328 111.599 346.824 119.696 346.824 119.696L361.113 117.668C361.543 114.82 360.81 111.419 360.772 110.66C357.813 110.476 350.379 111.038 347.997 111.149Z" fill="#C5DBFC"/>
<path d="M340.523 109.6C340.523 109.6 336.369 109.528 334.159 111.947C331.949 114.367 337.631 133.169 338.033 136.24C338.436 139.31 335.986 147.464 335.986 147.464C335.986 147.464 349.103 150.11 352.85 147.624C352.85 147.624 353.253 125.538 352.85 123.343C352.447 121.149 349.103 112.227 348.299 111.351C347.495 110.475 340.523 109.6 340.523 109.6Z" fill="#9BC1F9"/>
<path d="M342.382 102.124C342.382 102.124 342.353 102.288 342.3 102.568C342.052 103.913 341.093 108.378 340.446 109.608C339.664 111.091 343.125 115.82 346.458 115.243C347.449 115.071 345.619 110.897 345.707 110.455C345.875 109.61 346.098 108.454 346.337 107.271C346.47 106.604 346.603 105.926 346.728 105.29L347.375 102.002L342.382 102.124Z" fill="#F7A491"/>
<path d="M342.301 102.568C342.354 102.288 342.383 102.124 342.383 102.124L347.376 101.999L346.729 105.286L346.338 107.256C345.567 107.142 344.761 106.767 343.954 106.059C343.128 105.333 342.506 104.405 342.148 103.366C342.211 103.049 342.258 102.777 342.301 102.568Z" fill="#F5866E"/>
<path d="M345.742 90.7467C345.742 90.7467 343.395 90.4749 341.913 92.3876C340.43 94.3003 338.848 100.211 342.513 103.43C346.178 106.649 349.798 103.005 350.336 99.1447C350.874 95.2841 351.081 90.6079 345.742 90.7467Z" fill="#F7A491"/>
<path d="M351.421 99.0881C350.983 99.9408 350.247 100.412 349.782 100.142C349.317 99.8723 349.287 98.9688 349.725 98.1102C350.163 97.2516 350.899 96.7862 351.366 97.056C351.834 97.3259 351.859 98.2354 351.421 99.0881Z" fill="#F7A491"/>
<path d="M346.007 90.1152C346.007 90.1152 342.862 95.738 340.613 95.9981C338.364 96.2582 338.07 99.2466 338.07 99.2466C338.07 99.2466 338.874 92.3604 341.102 91.0324C343.329 89.7045 346.007 90.1152 346.007 90.1152Z" fill="#F47458"/>
<path d="M341.202 97.4124C341.386 98.4117 341.018 99.327 340.38 99.4581C339.743 99.5891 339.08 98.885 338.896 97.8935C338.712 96.9019 339.092 95.9788 339.719 95.8478C340.347 95.7167 341.02 96.4188 341.202 97.4124Z" fill="#F7A491"/>
<path d="M346.099 128.665C346.099 128.665 335.946 123.463 333.709 120.691C331.471 117.92 331.962 112.61 334.845 111.335C337.728 110.06 349.46 121.808 349.46 121.808L346.099 128.665Z" fill="#C5DBFC"/>
<path d="M389.825 148.377C393.427 146.462 397.628 148.181 397.943 153.206C398.258 158.23 394.708 160.008 391.293 159.673C387.879 159.339 384.544 150.487 389.825 148.377Z" fill="#F7CC7F"/>
<path d="M391.996 161.741C391.996 162.45 392.206 163.144 392.601 163.733C392.995 164.323 393.555 164.783 394.21 165.054C394.866 165.326 395.587 165.397 396.283 165.259C396.979 165.12 397.618 164.779 398.119 164.277C398.621 163.775 398.963 163.136 399.101 162.44C399.239 161.745 399.168 161.023 398.897 160.368C398.625 159.713 398.166 159.152 397.576 158.758C396.986 158.364 396.292 158.154 395.583 158.154C394.632 158.154 393.719 158.532 393.047 159.204C392.374 159.877 391.996 160.789 391.996 161.741Z" fill="#F7CC7F"/>
<path d="M387.888 163.796L375.645 163.374C375.645 163.374 366.103 160.393 365.807 160.309C365.512 160.225 364.047 156.408 363.656 156.734C363.265 157.061 364.503 158.647 364.004 158.932C363.505 159.218 358.849 157.691 358.857 158.07C358.872 158.776 361.673 159.116 361.62 159.439C361.567 159.762 358.731 158.805 358.452 159.327C358.172 159.85 361.219 159.983 361.303 160.247C361.387 160.511 358.415 160.519 358.636 161.078C358.755 161.381 361.276 161.006 361.207 161.385C361.139 161.764 359.252 162.363 359.422 162.693C359.592 163.024 360.941 161.976 361.964 162.118C362.987 162.261 363.803 161.817 365.361 162.533C366.92 163.249 372.12 166.444 375.621 166.798C379.122 167.152 386.855 167.984 386.855 167.984L387.888 163.796Z" fill="#F29383"/>
<path d="M390.22 163.237C396.924 163.548 391.029 169.163 391.029 169.163L381.123 167.757C380.824 165.781 381.333 163.425 381.358 162.898C383.414 162.771 388.569 163.159 390.22 163.237Z" fill="#96D9C9"/>
<path d="M395.401 162.163C395.401 162.163 398.282 162.112 399.814 163.785C401.345 165.457 397.406 178.5 397.128 180.628C396.851 182.755 398.548 188.419 398.548 188.419C398.548 188.419 389.454 190.254 386.855 188.531C386.855 188.531 386.575 173.217 386.855 171.696C387.134 170.174 389.454 163.988 390.011 163.38C390.569 162.771 395.401 162.163 395.401 162.163Z" fill="#50BFA5"/>
<path d="M394.112 156.979C394.112 156.979 394.132 157.092 394.169 157.288C394.341 158.221 395.006 161.315 395.454 162.165C395.997 163.194 393.598 166.468 391.286 166.077C390.6 165.957 391.873 163.063 391.806 162.752C391.691 162.165 391.532 161.363 391.37 160.544C391.278 160.08 391.186 159.611 391.098 159.175L390.65 156.896L394.112 156.979Z" fill="#F7A491"/>
<path d="M394.169 157.288C394.132 157.092 394.112 156.979 394.112 156.979L390.65 156.893L391.098 159.171C391.184 159.611 391.276 160.077 391.368 160.54C391.988 160.429 392.562 160.14 393.021 159.709C393.593 159.206 394.025 158.563 394.272 157.843C394.231 157.62 394.194 157.438 394.169 157.288Z" fill="#F47458"/>
<path d="M391.784 149.091C391.784 149.091 393.415 148.896 394.438 150.227C395.461 151.559 396.564 155.655 394.024 157.884C391.483 160.114 388.97 157.589 388.598 154.913C388.227 152.238 388.082 148.995 391.784 149.091Z" fill="#F7A491"/>
<path d="M387.847 154.874C388.15 155.461 388.659 155.793 388.984 155.606C389.308 155.418 389.326 154.786 389.023 154.196C388.719 153.605 388.211 153.278 387.886 153.466C387.562 153.654 387.544 154.284 387.847 154.874Z" fill="#F7A491"/>
<path d="M391.6 148.653C391.6 148.653 393.78 152.552 395.339 152.732C396.898 152.912 397.099 154.983 397.099 154.983C397.099 154.983 396.542 150.209 394.997 149.288C393.452 148.367 391.6 148.653 391.6 148.653Z" fill="#F7CC7F"/>
<path d="M394.931 153.722C394.804 154.415 395.06 155.05 395.502 155.14C395.944 155.23 396.404 154.749 396.531 154.051C396.658 153.353 396.402 152.723 395.962 152.633C395.522 152.543 395.064 153.02 394.931 153.722Z" fill="#F7A491"/>
<path d="M391.542 175.38C391.542 175.38 398.583 171.774 400.134 169.853C401.685 167.933 401.345 164.25 399.352 163.366C397.359 162.482 389.219 170.628 389.219 170.628L391.542 175.38Z" fill="#96D9C9"/>
<path d="M248.357 109.65C248.357 109.65 252.238 108.611 252.283 108.924C253.284 115.769 253.718 118.247 253.859 118.312C254.338 118.542 260.462 112.64 261.571 112.223C262.101 112.028 262.683 112.04 263.241 112.041C264.573 112.041 264.837 112.041 264.837 112.041H264.886L264.911 113.293C263.446 114.682 262.009 141.489 261.719 141.483C261.396 141.483 255.312 141.444 255.602 140.936C255.602 140.936 257.072 132.681 258.228 127.246C258.619 125.419 259.703 121.599 259.703 121.599C258.214 122.395 252.404 125.446 251.461 125.088C248.528 123.974 248.357 109.65 248.357 109.65Z" fill="#F47458"/>
<path d="M259.852 125.951C260.519 122.667 262.226 117.279 262.727 116.057C263.875 113.25 264.841 112.061 264.841 112.061L269.384 112.196C269.384 112.196 269.49 112.225 269.521 112.229C269.893 112.288 269.912 125.528 269.703 130.469C269.494 135.409 268.406 141.853 268.406 141.853L267.11 141.732C267.088 142.399 267.072 142.839 267.072 142.839C260.499 143.997 256.828 140.756 256.828 140.756C256.828 140.756 258.987 130.208 259.852 125.951Z" fill="#466EB6"/>
<path d="M269.383 112.196C269.383 112.196 273.881 111.867 275.023 111.312C275.72 110.975 281.378 106.166 281.378 106.166L280.986 93.6964L285.045 93.2817C285.045 93.2817 287.513 107.011 286.822 108.537C286.11 110.115 277.826 116.751 276.197 119.579C275.266 121.208 276.15 143.328 275.847 143.531C273.695 144.728 264.611 145.788 264.752 145.096C268.649 125.878 269.383 112.196 269.383 112.196Z" fill="#F47458"/>
<path d="M269.151 108.192L269.384 112.196C269.384 112.196 266.579 117.333 265.054 116.669C263.773 116.109 264.794 112.229 264.794 112.229C264.794 112.229 264.989 111.341 265.267 110.32C265.463 109.604 265.617 108.832 265.59 108.271C265.523 106.902 269.151 108.192 269.151 108.192Z" fill="#F7A491"/>
<path d="M265.592 108.271C265.526 106.902 269.154 108.192 269.154 108.192L269.175 108.583C269.07 108.759 268.938 108.916 268.784 109.051C267.809 109.845 266.568 110.237 265.314 110.148C265.493 109.538 265.587 108.906 265.592 108.271Z" fill="#F47458"/>
<path d="M265.396 99.1567C265.396 99.1567 263.958 101.453 263.896 103.354C263.845 104.43 263.971 105.507 264.269 106.542L268.922 100.674L265.396 99.1567Z" fill="#184655"/>
<path d="M263.395 102.969C263.344 103.635 263.618 104.201 264.005 104.23C264.392 104.259 264.746 103.741 264.787 103.074C264.828 102.407 264.564 101.844 264.177 101.815C263.79 101.785 263.44 102.302 263.395 102.969Z" fill="#F48C7F"/>
<path d="M270.507 101.543C270.616 101.517 270.751 107.044 269.183 108.388C267.614 109.731 264.829 109.917 263.98 108.628C263.042 107.203 263.746 101.357 266.096 100.056C268.447 98.7557 270.507 101.543 270.507 101.543Z" fill="#F7A491"/>
<path d="M270.823 98.1046C272.074 99.1451 272.686 99.9137 273.561 101.797C274.64 104.115 272.684 106.597 271.018 107.608C269.352 108.619 269.24 109.786 269.24 109.786L269.152 109.071C269.111 108.851 269.111 108.627 269.152 108.408C269.208 108.205 269.283 108.009 269.377 107.821C269.514 107.51 269.948 106.452 270.122 106.158C270.58 105.411 270.67 105.249 270.416 104.559C270.22 104.025 270.4 102.836 270.095 101.956L267.805 101.525C267.805 101.525 266.369 101.218 265.628 100.407C263.504 98.0714 267.521 95.3059 270.823 98.1046Z" fill="#184655"/>
<path d="M269.894 105.173C269.63 105.787 269.699 106.409 270.06 106.563C270.422 106.718 270.921 106.344 271.187 105.73C271.453 105.116 271.382 104.494 271.019 104.34C270.655 104.185 270.16 104.559 269.894 105.173Z" fill="#F7A491"/>
<path d="M28.9219 126.929C28.9219 126.929 34.7715 125.364 34.8419 125.837C36.3498 136.162 36.9933 139.893 37.2162 139.995C37.9399 140.343 47.171 131.446 48.8412 130.817C49.6411 130.513 50.5212 130.539 51.3622 130.541C53.3708 130.541 53.7658 130.541 53.7658 130.541H53.8402L53.8793 132.428C51.6712 134.521 49.5042 174.938 49.0681 174.929C48.5792 174.919 39.4086 174.87 39.8448 174.105C39.8448 174.105 42.0606 161.659 43.8052 153.453C44.3919 150.699 46.0269 144.941 46.0269 144.941C43.7837 146.14 35.0238 150.74 33.602 150.2C29.18 148.526 28.9219 126.929 28.9219 126.929Z" fill="#F7CC7F"/>
<path d="M46.2522 151.507C47.2595 146.557 49.8332 138.432 50.5862 136.59C52.317 132.36 53.7741 130.566 53.7741 130.566L60.6192 130.762C60.6192 130.762 60.7776 130.805 60.8265 130.813C61.3859 130.901 61.4132 150.85 61.1003 158.309C60.7874 165.768 59.1446 175.474 59.1446 175.474L57.1888 175.279C57.1575 176.286 57.1341 176.949 57.1341 176.949C47.2242 178.696 41.6836 173.81 41.6836 173.81C41.6836 173.81 44.9477 157.927 46.2522 151.507Z" fill="#F7CC7F"/>
<path d="M60.629 130.77C60.629 130.77 67.4038 130.275 69.1327 129.438C70.1809 128.929 78.7159 121.679 78.7159 121.679L78.1291 102.881L84.2448 102.253C84.2448 102.253 87.9607 122.951 86.9281 125.255C85.8524 127.635 73.3493 137.64 70.9085 141.904C69.5023 144.36 70.8361 177.706 70.3804 178.015C67.1241 179.818 53.4397 181.416 53.6529 180.362C59.5182 151.397 60.629 130.77 60.629 130.77Z" fill="#F7CC7F"/>
<path d="M60.2708 124.734L60.6228 130.77C60.6228 130.77 56.3945 138.515 54.0945 137.511C52.1622 136.67 53.7034 130.821 53.7034 130.821C53.7034 130.821 53.9987 129.481 54.4172 127.94C54.7086 126.864 54.9453 125.699 54.9042 124.852C54.8005 122.788 60.2708 124.734 60.2708 124.734Z" fill="#BF7154"/>
<path d="M54.9049 124.852C54.8012 122.788 60.2715 124.734 60.2715 124.734L60.3067 125.321C60.1468 125.583 59.9491 125.821 59.7199 126.025C58.2494 127.223 56.378 127.815 54.4863 127.682C54.7464 126.68 54.942 125.632 54.9049 124.852Z" fill="#A3573C"/>
<path d="M54.6177 111.097C54.6177 111.097 52.4507 114.558 52.3568 117.425C52.2629 120.293 52.922 122.235 52.922 122.235L59.9354 113.389L54.6177 111.097Z" fill="#184655"/>
<path d="M51.5931 116.859C51.5168 117.864 51.9295 118.715 52.5142 118.76C53.099 118.805 53.6329 118.024 53.7092 117.019C53.7855 116.014 53.3728 115.163 52.788 115.118C52.2033 115.073 51.6693 115.853 51.5931 116.859Z" fill="#A3573C"/>
<path d="M62.3173 114.709C62.4815 114.67 62.6849 123.003 60.3204 125.028C57.9559 127.052 53.7569 127.333 52.4778 125.391C51.0619 123.24 52.1239 114.427 55.6677 112.468C59.2115 110.508 62.3173 114.709 62.3173 114.709Z" fill="#BF7154"/>
<path d="M62.7936 109.522C64.6789 111.087 65.604 112.247 66.9261 115.088C68.5533 118.583 65.6059 122.325 63.0908 123.846C60.5757 125.368 60.4115 127.134 60.4115 127.134L60.2765 126.052C60.2152 125.722 60.2152 125.383 60.2765 125.053C60.3595 124.746 60.4735 124.447 60.6168 124.163C60.8124 123.694 61.4773 122.084 61.7394 121.658C62.4278 120.531 62.5628 120.289 62.1814 119.244C61.8861 118.441 62.156 116.647 61.6983 115.321L58.2445 114.672C58.2445 114.672 56.0814 114.21 54.9627 112.986C51.7592 109.475 57.8162 105.304 62.7936 109.522Z" fill="#184655"/>
<path d="M61.3952 120.181C61.0041 121.106 61.1097 122.045 61.6475 122.278C62.1854 122.51 62.9442 121.947 63.3432 121.022C63.7421 120.097 63.6307 119.158 63.0928 118.926C62.555 118.693 61.802 119.256 61.3952 120.181Z" fill="#BF7154"/>
<path d="M177.641 58.6315C177.641 58.6315 172.812 57.3407 172.752 57.7299C171.506 66.2531 170.966 69.3334 170.796 69.4175C170.209 69.705 162.582 62.3611 161.201 61.8409C160.54 61.5905 159.814 61.6121 159.12 61.614C157.463 61.614 157.135 61.614 157.135 61.614H157.074L157.043 63.1786C158.864 64.9055 160.653 98.2668 161.013 98.259C161.416 98.259 168.987 98.2101 168.627 97.5784C168.627 97.5784 166.798 87.3048 165.357 80.532C164.874 78.2594 163.524 73.505 163.524 73.505C165.374 74.4946 172.607 78.2927 173.78 77.8468C177.428 76.4582 177.641 58.6315 177.641 58.6315Z" fill="#13375B"/>
<path d="M163.335 78.9202C162.504 74.8327 160.38 68.1264 159.758 66.599C158.329 63.106 157.128 61.6255 157.128 61.6255L151.472 61.7937C151.472 61.7937 151.341 61.8289 151.301 61.8367C150.84 61.9091 150.826 78.3746 151.075 84.5235C151.323 90.6724 152.69 98.691 152.69 98.691L154.304 98.5384C154.331 99.3696 154.349 99.9074 154.349 99.9074C162.529 101.351 167.098 97.318 167.098 97.318C167.098 97.318 164.411 84.2184 163.335 78.9202Z" fill="#466EB6"/>
<path d="M151.472 61.8017C151.472 61.8017 145.881 61.3929 144.455 60.7025C143.589 60.284 136.548 54.2994 136.548 54.2994L137.035 38.7805L131.987 38.2642C131.987 38.2642 128.913 55.3477 129.773 57.2506C130.661 59.2064 140.98 67.4734 142.996 70.9918C144.156 73.0199 143.055 100.545 143.43 100.799C146.119 102.288 157.414 103.608 157.238 102.742C152.386 78.8285 151.472 61.8017 151.472 61.8017Z" fill="#13375B"/>
<path d="M151.768 56.8205L151.473 61.8018C151.473 61.8018 154.964 68.1952 156.863 67.3679C158.457 66.6716 157.185 61.8448 157.185 61.8448C157.185 61.8448 156.941 60.7379 156.599 59.4666C156.356 58.5787 156.163 57.6165 156.198 56.9241C156.28 55.2129 151.768 56.8205 151.768 56.8205Z" fill="#F7A491"/>
<path d="M156.195 56.9122C156.28 55.2087 151.764 56.8163 151.764 56.8163L151.736 57.3033C151.867 57.5222 152.03 57.7201 152.219 57.89C153.433 58.8793 154.978 59.3688 156.54 59.2591C156.325 58.4279 156.162 57.5615 156.195 56.9122Z" fill="#F47458"/>
<path d="M156.43 45.5688C156.43 45.5688 158.217 48.4262 158.296 50.7927C158.358 52.1319 158.201 53.4724 157.83 54.7609L152.039 47.4601L156.43 45.5688Z" fill="#F47458"/>
<path d="M158.928 50.3194C158.991 51.1487 158.65 51.8508 158.167 51.884C157.684 51.9173 157.244 51.2778 157.189 50.4485C157.135 49.6193 157.467 48.9152 157.948 48.8839C158.429 48.8526 158.866 49.4902 158.928 50.3194Z" fill="#F48C7F"/>
<path d="M150.075 48.5457C149.938 48.5124 149.772 55.3908 151.724 57.063C153.676 58.7351 157.141 58.9659 158.197 57.3622C159.371 55.5883 158.489 48.3129 155.563 46.6955C152.637 45.0781 150.075 48.5457 150.075 48.5457Z" fill="#F7A491"/>
<path d="M149.683 44.2662C148.118 45.5609 147.363 46.5173 146.27 48.8622C144.928 51.747 147.361 54.8351 149.436 56.0985C151.511 57.3619 151.648 58.8111 151.648 58.8111L151.758 57.9193C151.808 57.6472 151.808 57.3681 151.758 57.0959C151.689 56.8419 151.595 56.5955 151.476 56.3606C151.308 55.9694 150.766 54.6434 150.549 54.2914C149.982 53.3624 149.868 53.161 150.185 52.3004C150.428 51.6374 150.205 50.1491 150.576 49.0617L153.428 48.5239C153.428 48.5239 155.214 48.1445 156.137 47.1353C158.791 44.2251 153.79 40.783 149.683 44.2662Z" fill="#F47458"/>
<path d="M150.837 53.0633C151.165 53.826 151.071 54.6005 150.627 54.7921C150.183 54.9838 149.558 54.5203 149.227 53.7556C148.896 52.9909 148.99 52.2184 149.434 52.0228C149.878 51.8272 150.506 52.2986 150.837 53.0633Z" fill="#F7A491"/>
<path d="M205.533 147.564C205.533 147.564 208.367 146.807 208.4 147.036C209.132 152.037 209.449 153.846 209.552 153.895C209.902 154.065 214.375 149.752 215.185 149.447C215.58 149.329 215.994 149.284 216.405 149.314C217.383 149.314 217.579 149.314 217.579 149.314H217.614L217.633 150.228C216.564 151.243 215.513 170.826 215.302 170.82C215.091 170.814 210.622 170.792 210.833 170.429C210.833 170.429 211.907 164.399 212.752 160.423C213.035 159.087 213.828 156.298 213.828 156.298C212.742 156.885 208.496 159.109 207.808 158.841C205.658 158.025 205.533 147.564 205.533 147.564Z" fill="#F7CC7F"/>
<path d="M213.929 159.473C214.48 157.023 215.182 154.61 216.029 152.246C216.868 150.196 217.572 149.326 217.572 149.326L220.897 149.424C220.897 149.424 220.973 149.445 220.997 149.449C221.267 149.492 221.277 159.158 221.13 162.772C220.983 166.386 220.181 171.09 220.181 171.09L219.235 171C219.219 171.487 219.207 171.808 219.207 171.808C214.406 172.654 211.725 170.288 211.725 170.288C211.725 170.288 213.297 162.584 213.929 159.473Z" fill="#466EB6"/>
<path d="M220.895 149.42C220.895 149.42 224.176 149.181 225.013 148.777C225.522 148.53 229.654 145.018 229.654 145.018L229.369 135.908L232.332 135.604C232.332 135.604 234.135 145.634 233.632 146.752C233.11 147.904 227.053 152.753 225.87 154.818C225.189 156.007 225.835 172.165 225.614 172.314C224.037 173.188 217.4 173.963 217.509 173.454C220.359 159.42 220.895 149.42 220.895 149.42Z" fill="#F7CC7F"/>
<path d="M220.722 146.5L220.894 149.424C220.894 149.424 218.845 153.179 217.73 152.692C216.793 152.283 217.534 149.449 217.534 149.449C217.534 149.449 217.677 148.8 217.88 148.055C218.029 147.569 218.108 147.065 218.115 146.557C218.068 145.557 220.722 146.5 220.722 146.5Z" fill="#F7A491"/>
<path d="M218.121 146.557C218.072 145.557 220.723 146.5 220.723 146.5L220.74 146.785C220.663 146.913 220.567 147.029 220.455 147.128C219.74 147.709 218.831 147.996 217.912 147.93C218.045 147.484 218.116 147.022 218.121 146.557Z" fill="#F47458"/>
<path d="M217.984 139.894C217.984 139.894 216.934 141.57 216.889 142.96C216.852 143.746 216.945 144.532 217.162 145.288L220.56 141.01L217.984 139.894Z" fill="#13375B"/>
<path d="M216.516 142.684C216.481 143.171 216.68 143.584 216.962 143.605C217.243 143.627 217.505 143.249 217.548 142.762C217.591 142.275 217.386 141.863 217.102 141.841C216.819 141.82 216.553 142.197 216.516 142.684Z" fill="#F48C7F"/>
<path d="M221.713 141.644C221.794 141.624 221.891 145.663 220.736 146.643C219.58 147.622 217.556 147.761 216.936 146.819C216.251 145.778 216.765 141.507 218.483 140.56C220.2 139.614 221.713 141.644 221.713 141.644Z" fill="#F7A491"/>
<path d="M221.945 139.133C222.858 139.892 223.314 140.453 223.947 141.83C224.73 143.523 223.308 145.336 222.089 146.074C220.871 146.811 220.791 147.666 220.791 147.666L220.726 147.142C220.695 146.982 220.695 146.818 220.726 146.659C220.765 146.509 220.82 146.364 220.89 146.226C220.99 145.999 221.307 145.219 221.434 145.012C221.769 144.466 221.825 144.349 221.647 143.838C221.504 143.447 221.636 142.581 221.415 141.939L219.74 141.622C219.74 141.622 218.692 141.399 218.15 140.807C216.598 139.107 219.533 137.087 221.945 139.133Z" fill="#13375B"/>
<path d="M221.267 144.296C221.072 144.744 221.128 145.198 221.388 145.311C221.649 145.424 222.018 145.151 222.212 144.703C222.405 144.255 222.349 143.799 222.089 143.688C221.828 143.576 221.461 143.846 221.267 144.296Z" fill="#F7A491"/>
<path d="M337.66 162.434C337.66 162.434 334.24 161.52 334.199 161.796C333.317 167.83 332.935 170.01 332.812 170.071C332.388 170.266 326.992 165.074 326.016 164.706C325.548 164.53 325.038 164.544 324.541 164.544C323.368 164.544 323.137 164.544 323.137 164.544H323.092L323.068 165.647C324.359 166.871 325.626 190.497 325.881 190.485C326.166 190.485 331.527 190.452 331.273 190.004C331.273 190.004 329.976 182.728 328.957 177.931C328.615 176.321 327.659 172.956 327.659 172.956C328.969 173.656 334.091 176.345 334.922 176.03C337.51 175.058 337.66 162.434 337.66 162.434Z" fill="#F47458"/>
<path d="M327.529 176.801C326.943 173.906 325.437 169.158 324.987 168.08C323.974 165.608 323.123 164.56 323.123 164.56L319.118 164.679C319.118 164.679 319.026 164.704 318.998 164.708C318.67 164.759 318.66 176.421 318.838 180.781C319.016 185.14 319.982 190.816 319.982 190.816L321.124 190.706C321.142 191.293 321.155 191.684 321.155 191.684C326.948 192.705 330.183 189.849 330.183 189.849C330.183 189.849 328.292 180.554 327.529 176.801Z" fill="#466EB6"/>
<path d="M319.127 164.675C319.127 164.675 315.169 164.385 314.158 163.892C313.546 163.595 308.558 159.357 308.558 159.357L308.905 148.368L305.329 148.002C305.329 148.002 303.153 160.1 303.765 161.448C304.393 162.838 311.701 168.684 313.129 171.178C313.95 172.615 313.17 192.104 313.438 192.286C315.341 193.342 323.34 194.275 323.217 193.655C319.767 176.736 319.127 164.675 319.127 164.675Z" fill="#F47458"/>
<path d="M319.334 161.154L319.127 164.675C319.127 164.675 321.599 169.202 322.945 168.615C324.073 168.123 323.173 164.704 323.173 164.704C323.173 164.704 322.999 163.922 322.755 163.02C322.576 162.435 322.481 161.827 322.471 161.215C322.532 160.012 319.334 161.154 319.334 161.154Z" fill="#F7A491"/>
<path d="M322.471 161.219C322.532 160.012 319.342 161.15 319.342 161.15L319.322 161.494C319.414 161.648 319.53 161.787 319.665 161.905C320.524 162.605 321.618 162.951 322.723 162.873C322.563 162.336 322.478 161.779 322.471 161.219Z" fill="#F47458"/>
<path d="M322.637 153.179C322.637 153.179 323.904 155.201 323.959 156.877C324.004 157.825 323.892 158.774 323.629 159.686L319.521 154.514L322.637 153.179Z" fill="#184655"/>
<path d="M324.406 156.547C324.45 157.134 324.21 157.632 323.868 157.658C323.525 157.683 323.214 157.227 323.169 156.641C323.124 156.054 323.365 155.555 323.707 155.53C324.05 155.504 324.362 155.96 324.406 156.547Z" fill="#F48C7F"/>
<path d="M318.139 155.287C318.042 155.264 317.924 160.135 319.313 161.319C320.701 162.502 323.15 162.666 323.897 161.53C324.724 160.274 324.104 155.121 322.033 153.977C319.962 152.833 318.139 155.287 318.139 155.287Z" fill="#F7A491"/>
<path d="M317.859 152.259C316.756 153.177 316.216 153.853 315.444 155.514C314.491 157.558 316.214 159.744 317.685 160.634C319.156 161.524 319.25 162.555 319.25 162.555L319.328 161.923C319.364 161.729 319.364 161.53 319.328 161.336C319.28 161.157 319.215 160.982 319.132 160.816C319.013 160.54 318.63 159.599 318.477 159.349C318.074 158.692 317.994 158.549 318.219 157.939C318.391 157.47 318.233 156.421 318.501 155.647L320.519 155.256C320.519 155.256 321.784 154.988 322.438 154.278C324.309 152.232 320.769 149.793 317.859 152.259Z" fill="#184655"/>
<path d="M318.678 158.489C318.911 159.031 318.845 159.578 318.532 159.715C318.219 159.852 317.773 159.52 317.538 158.98C317.303 158.44 317.372 157.89 317.687 157.755C318.002 157.62 318.444 157.949 318.678 158.489Z" fill="#F7A491"/>
<path d="M262.778 180.023C262.778 180.023 267.22 174.088 268.841 171.281C270.463 168.475 267.736 170.303 264.951 169.562C263.895 169.282 264.769 163.523 262.776 165.531C259.504 168.829 256.227 175.969 256.227 175.969L262.778 180.023Z" fill="#13375B"/>
<path d="M263.258 165.138C266.131 164.268 271.515 163.812 271.515 163.812C271.515 163.812 274.889 163.263 275.984 163.501C277.598 163.85 280.627 164.01 280.911 171.015C281.106 176.026 281.693 188.422 282.254 196.802L261.719 198.048C262.64 185.165 260.537 165.964 263.258 165.138Z" fill="#47637F"/>
<path d="M268.704 157.83L271.931 163.765C271.931 163.765 269.5 168.097 267.202 168.213C265.272 168.309 265.575 165.457 265.575 165.457C265.575 165.457 265.272 161.77 264.347 160.118C263.422 158.465 268.704 157.83 268.704 157.83Z" fill="#F7A491"/>
<path d="M268.412 160.202C267.474 161.191 266.377 162.016 265.165 162.641C264.969 161.716 264.709 160.759 264.348 160.114C263.919 159.351 264.815 158.806 265.912 158.44C267.369 158.049 268.713 157.826 268.713 157.826L269.333 158.968C269.168 159.367 268.652 159.946 268.412 160.202Z" fill="#F47458"/>
<path d="M267.048 147.832C267.181 147.736 270.373 155.154 268.983 157.822C267.592 160.489 263.956 162.253 262.114 160.967C260.078 159.543 257.848 151.239 260.307 148.205C262.765 145.172 267.048 147.832 267.048 147.832Z" fill="#F7A491"/>
<path d="M260.324 143.758C262.142 143.649 263.95 144.105 265.499 145.062C266.61 144.89 268.237 145.078 270.441 147.157C273.152 149.713 272.727 153.498 271.028 155.762C269.328 158.027 269.895 159.961 269.895 159.961L269.277 159.058C268.809 158.375 268.494 157.599 268.352 156.783C268.257 156.286 268.243 155.776 268.309 155.274C268.519 154.014 266.676 153.726 265.962 152.927C265.411 152.311 264.94 150.681 264.054 149.655L263.138 148.937C263.138 148.937 261.274 148.172 259.868 148.925C258.462 149.678 257.115 143.985 260.324 143.758Z" fill="#F7CC7F"/>
<path d="M266.45 154.27C266.696 155.215 267.338 155.866 267.883 155.723C268.429 155.581 268.666 154.703 268.425 153.758C268.185 152.813 267.537 152.162 266.992 152.303C266.446 152.444 266.203 153.332 266.45 154.27Z" fill="#F7A491"/>
<path d="M263.854 157.333L260.84 158.006C260.84 158.006 261.165 159.134 262.498 158.878C264.126 158.563 263.854 157.333 263.854 157.333Z" fill="white"/>
<path d="M273.637 181.062C273.637 181.062 279.031 174.217 280.349 171.514C281.668 168.811 280.257 164.561 277.643 164.057C275.028 163.552 267.455 175.85 267.455 175.85L273.637 181.062Z" fill="#13375B"/>
<path d="M81.8103 74.1503C81.8103 74.1503 79.1935 70.6534 78.2293 68.9989C77.2651 67.3443 78.8805 68.4219 80.5214 67.9878C81.1434 67.8215 80.627 64.4283 81.8024 65.6135C83.7289 67.5555 85.6612 71.7624 85.6612 71.7624L81.8103 74.1503Z" fill="#96D9C9"/>
<path d="M81.5268 65.3806C79.835 64.8682 76.6628 64.5983 76.6628 64.5983C76.6628 64.5983 74.6758 64.2756 74.0284 64.4164C73.0779 64.6218 71.2903 64.7157 71.128 68.8423C71.0087 71.7955 70.6723 79.1022 70.3359 84.0366L82.4401 84.77C81.8925 77.1797 83.1305 65.8656 81.5268 65.3806Z" fill="#50BFA5"/>
<path d="M78.317 61.0723L76.416 64.5692C76.416 64.5692 77.8496 67.1214 79.203 67.1899C80.3393 67.2466 80.1613 65.5666 80.1613 65.5666C80.1613 65.5666 80.3393 63.3938 80.8849 62.4198C81.4306 61.4458 78.317 61.0723 78.317 61.0723Z" fill="#F7A491"/>
<path d="M78.491 62.4726C79.0433 63.0558 79.6899 63.5417 80.4037 63.91C80.493 63.3931 80.6549 62.8913 80.8848 62.4198C81.1371 61.9719 80.6091 61.6492 79.9676 61.4419C79.109 61.2131 78.3169 61.0801 78.3169 61.0801L77.9531 61.7529C78.0955 62.0183 78.2768 62.2609 78.491 62.4726Z" fill="#F47458"/>
<path d="M79.2943 55.1835C79.2161 55.1267 77.3385 59.4979 78.1541 61.0703C78.9696 62.6427 81.1151 63.6812 82.2005 62.9224C83.4014 62.0834 84.7137 57.192 83.2664 55.4045C81.8192 53.6169 79.2943 55.1835 79.2943 55.1835Z" fill="#F7A491"/>
<path d="M83.2551 52.7838C82.1838 52.7194 81.1188 52.9878 80.206 53.5524C79.5528 53.4507 78.5945 53.5622 77.2959 54.7865C75.698 56.2924 75.9464 58.522 76.9458 59.8617C77.9452 61.2014 77.6107 62.3298 77.6107 62.3298L77.9765 61.7979C78.2515 61.3954 78.4369 60.9385 78.5202 60.4582C78.5764 60.1648 78.585 59.8644 78.5456 59.5683C78.4224 58.8251 79.5078 58.6569 79.9303 58.1856C80.2549 57.8238 80.5346 56.8635 81.0548 56.2572L81.5946 55.8348C81.5946 55.8348 82.6937 55.3849 83.521 55.8348C84.3483 56.2846 85.1463 52.9168 83.2551 52.7838Z" fill="#184655"/>
<path d="M79.6482 58.9775C79.5035 59.533 79.1261 59.9163 78.8034 59.8341C78.4807 59.752 78.3398 59.2318 78.4846 58.6744C78.6293 58.117 79.0068 57.7356 79.3294 57.8178C79.6521 57.8999 79.7949 58.4201 79.6482 58.9775Z" fill="#F7A491"/>
<path d="M81.1761 60.7827L82.9519 61.1739C82.8872 61.3695 82.7491 61.5324 82.5668 61.6284C82.3844 61.7243 82.1719 61.7458 81.974 61.6882C81.0157 61.5064 81.1761 60.7827 81.1761 60.7827Z" fill="white"/>
<path d="M75.4123 74.7626C75.4123 74.7626 72.2342 70.724 71.4578 69.1379C70.6814 67.5517 71.5106 65.0406 73.0517 64.7433C74.5929 64.446 79.054 71.6921 79.054 71.6921L75.4123 74.7626Z" fill="#96D9C9"/>
<path d="M138.875 108.98C139.216 108.994 140.149 109.307 141.51 111.883C143.251 115.172 145.795 125.108 145.795 125.108L138.203 127.936L137.225 125.863L135.617 109.896C135.617 109.896 138.782 108.977 138.875 108.98Z" fill="#8CA5D2"/>
<path d="M128.838 107.549C131.009 107.549 136.382 108.184 138.875 108.982C138.875 108.982 140.708 124.726 137.227 136.69C136.444 139.367 137.87 147.792 137.87 147.792L115.379 147.495C115.379 147.495 118.037 127.124 117.032 123.84C116.026 120.557 116.005 109.088 116.005 109.088L121.062 108.216C123.633 107.795 126.233 107.572 128.838 107.549Z" fill="#466EB6"/>
<path d="M115.758 110.838C117.862 110.056 118.887 129.003 119.175 136.805C122.891 137.162 129.393 136.805 131.011 136.685C131.772 136.629 133.524 135.987 134.281 135.887C135.038 135.788 135.758 135.733 136.139 135.799C136.28 135.825 140.162 137.413 140.494 137.755C140.907 138.185 142.02 139.275 141.832 139.746C141.644 140.217 139.681 138.434 139.681 138.434L138.726 137.898C139.913 139.06 142.182 140.589 141.856 141.146C141.529 141.704 139.491 140.137 138.034 139.079C139.284 140.21 140.837 142.23 140.479 142.545C140.158 142.828 138.39 140.487 136.503 139.807C135.802 139.556 135.104 140.249 134.547 140.331C134.142 140.393 133.518 140.526 133.121 140.411L131.075 139.824C130.379 139.887 130.362 140.299 129.659 140.448C128.842 140.622 127.508 140.804 126.464 141.058C120.475 142.521 118.478 143.21 116.644 143.2C111.109 143.219 110.786 112.702 115.758 110.838Z" fill="#F7A491"/>
<path d="M111.766 128.634C111.375 120.64 111.43 110.791 115.911 109.111C117.671 108.448 120.8 112.436 120.233 128.794C117.841 128.992 114.33 129.152 111.766 128.634Z" fill="#8CA5D2"/>
<path d="M133.886 88.3177C133.245 88.1067 132.617 87.8559 132.007 87.5667C131.319 87.2342 130.429 86.845 129.856 86.759C128.669 86.5751 126.633 86.6983 125.508 87.9168C124.106 89.4383 121.616 88.1925 122.119 96.1524C122.686 105.165 127.697 104.171 127.818 104.022C127.939 103.874 132.287 98.2568 132.287 98.2568C132.287 98.2568 133.806 101.582 133.806 101.46C133.806 101.339 141.577 90.9091 133.886 88.3177Z" fill="#0E2E35"/>
<path d="M130.081 104.689L130.513 107.909C130.513 107.909 131.491 112.548 130.236 113.441C128.98 114.335 124.936 107.77 124.936 107.77L125.364 99.6182L130.081 104.689Z" fill="#F7A491"/>
<path d="M125.227 102.262C126.257 105.043 128.71 106.761 130.45 107.418L130.083 104.68L125.365 99.6182L125.227 102.262Z" fill="#F47458"/>
<path d="M129.827 90.747C130.446 90.6534 131.079 90.6963 131.68 90.8728C132.282 91.0492 132.837 91.3549 133.308 91.7684C133.779 92.1819 134.154 92.6933 134.406 93.2668C134.659 93.8404 134.783 94.4622 134.771 95.0887C134.739 96.4719 134.619 97.8515 134.411 99.2193C133.836 102.935 131.299 106.209 129.623 105.916C127.947 105.622 123.727 102.417 124.47 97.1286C124.929 93.8546 127.055 91.187 129.827 90.747Z" fill="#F7A491"/>
<path d="M125.632 97.7525C125.492 98.568 124.836 99.1372 124.17 99.0218C123.503 98.9064 123.078 98.1495 123.221 97.332C123.364 96.5145 124.017 95.9454 124.682 96.0608C125.347 96.1761 125.773 96.935 125.632 97.7525Z" fill="#F7A491"/>
<path d="M124.683 96.0607C124.683 96.0607 126.711 96.5652 127.464 95.2607C128.217 93.9563 130.906 91.138 134.326 92.3115C137.747 93.4849 131.316 89.4756 131.043 89.4756L127.485 89.4521C127.485 89.4521 124.954 91.5292 124.864 91.7619C124.774 91.9946 124.043 94.4824 124.043 94.4824L124.683 96.0607Z" fill="#0E2E35"/>
<path d="M128.392 101.503L132.08 102.209C132.08 102.209 131.728 103.598 130.097 103.336C128.102 103.013 128.392 101.503 128.392 101.503Z" fill="white"/>
<path d="M178.457 156.822C178.635 156.822 179.118 156.992 179.826 158.33C180.732 160.041 182.054 165.204 182.054 165.204L178.107 166.675L177.601 165.597L176.766 157.297C176.766 157.297 178.408 156.82 178.457 156.822Z" fill="#FADFAE"/>
<path d="M173.242 156.079C174.37 156.079 177.153 156.409 178.458 156.822C178.458 156.822 179.41 165.007 177.601 171.224C177.192 172.616 177.936 176.995 177.936 176.995L166.24 176.841C166.24 176.841 167.625 166.256 167.103 164.545C166.581 162.834 166.569 156.879 166.569 156.879L169.195 156.425C170.533 156.206 171.886 156.09 173.242 156.079Z" fill="#F7CC7F"/>
<path d="M166.435 157.788C167.528 157.378 168.062 167.229 168.211 171.283C170.147 171.479 173.521 171.283 174.362 171.22C174.753 171.191 175.668 170.857 176.061 170.806C176.38 170.751 176.705 170.736 177.027 170.761C177.1 170.773 179.118 171.598 179.29 171.78C179.505 172.003 180.084 172.562 179.986 172.814C179.889 173.067 178.873 172.132 178.873 172.132L178.377 171.854C178.995 172.458 180.172 173.253 180.004 173.542C179.836 173.831 178.774 173.018 178.017 172.468C178.666 173.055 179.474 174.105 179.288 174.27C179.102 174.434 178.203 173.2 177.221 172.85C176.857 172.721 176.495 173.08 176.21 173.123C175.967 173.182 175.716 173.196 175.469 173.164L174.405 172.863C174.043 172.897 174.033 173.11 173.669 173.188C173.245 173.278 172.549 173.384 172.007 173.505C168.895 174.266 167.857 174.618 166.904 174.618C164.025 174.618 163.859 158.756 166.435 157.788Z" fill="#F7A491"/>
<path d="M164.369 167.037C164.173 162.883 164.193 157.763 166.52 156.89C167.439 156.546 169.062 158.617 168.767 167.121C167.525 167.217 165.7 167.307 164.369 167.037Z" fill="#FADFAE"/>
<path d="M175.865 146.083C175.531 145.973 175.205 145.843 174.887 145.692C174.534 145.507 174.16 145.367 173.772 145.273C173.156 145.177 172.098 145.24 171.513 145.876C170.786 146.658 169.491 146.018 169.753 150.155C170.049 154.849 172.654 154.324 172.716 154.246L175.042 151.25C175.042 151.25 175.824 152.977 175.824 152.914C175.824 152.852 179.863 147.428 175.865 146.083Z" fill="#0E2E35"/>
<path d="M173.886 154.592L174.111 156.265C174.111 156.265 174.616 158.676 173.969 159.141C173.321 159.607 171.213 156.196 171.213 156.196L171.436 151.962L173.886 154.592Z" fill="#BF7154"/>
<path d="M171.365 153.331C171.899 154.776 173.174 155.666 174.08 156.01L173.884 154.592L171.438 151.962L171.365 153.331Z" fill="#96482A"/>
<path d="M173.754 147.34C174.076 147.291 174.406 147.313 174.719 147.404C175.032 147.495 175.321 147.654 175.566 147.869C175.811 148.084 176.006 148.351 176.137 148.649C176.268 148.948 176.332 149.271 176.324 149.597C176.306 150.318 176.24 151.037 176.128 151.749C175.831 153.681 174.513 155.38 173.641 155.23C172.769 155.079 170.576 153.411 170.963 150.661C171.21 148.96 172.315 147.573 173.754 147.34Z" fill="#BF7154"/>
<path d="M171.575 150.984C171.5 151.409 171.16 151.704 170.814 151.645C170.468 151.587 170.247 151.192 170.321 150.765C170.395 150.339 170.734 150.045 171.08 150.106C171.426 150.167 171.647 150.562 171.575 150.984Z" fill="#BF7154"/>
<path d="M171.081 150.108C171.081 150.108 172.135 150.37 172.526 149.692C172.917 149.013 174.315 147.552 176.093 148.158C177.871 148.765 174.529 146.684 174.386 146.684L172.538 146.682C172.538 146.682 171.223 147.763 171.169 147.882C171.114 148.002 170.742 149.298 170.742 149.298L171.081 150.108Z" fill="#0E2E35"/>
<path d="M173.009 152.94L174.926 153.306C174.926 153.306 174.744 154.027 173.895 153.892C172.862 153.722 173.009 152.94 173.009 152.94Z" fill="white"/>
<path d="M346.865 72.3182L352.989 72.944C352.989 72.944 353.27 67.9236 353.27 65.5278C353.27 62.6235 353.024 58.8782 352.672 58.9623C351.694 59.1892 350.362 59.7329 349.572 60.8164C346.84 64.5695 346.865 72.3182 346.865 72.3182Z" fill="#B75742"/>
<path d="M349.884 65.015C349.755 65.901 347.4 89.9822 347.4 89.9822C358.548 95.3664 364.703 90.9405 364.703 90.9405C364.703 90.9405 364.337 74.0311 364.775 71.7311C365.065 70.2076 365.425 60.0885 364.439 59.801C363.035 59.3693 361.595 59.0637 360.136 58.8877C358.785 58.7468 353.538 58.6667 352.599 58.9815C351.144 60.6969 350.203 62.7883 349.884 65.015Z" fill="#F47458"/>
<path d="M358.64 54.2371L359.357 58.974C359.357 58.974 356.731 64.6144 355.166 64.1254C353.852 63.7147 354.66 58.7236 354.66 58.7236C354.66 58.7236 355.377 56.0442 355.162 54.7026C354.947 53.3609 358.64 54.2371 358.64 54.2371Z" fill="#F7A491"/>
<path d="M355.166 54.7026C354.951 53.3609 358.642 54.2371 358.642 54.2371L358.702 54.6283C358.612 54.8694 358.479 55.0926 358.311 55.2874C357.458 56.1639 356.305 56.6858 355.084 56.7483C355.207 56.0736 355.235 55.385 355.166 54.7026Z" fill="#F47458"/>
<path d="M359.243 47.5365C359.348 47.4974 360.08 52.9305 358.691 54.4247C357.303 55.9189 354.584 56.4098 353.624 55.2324C352.55 53.9299 352.605 48.092 354.764 46.5528C356.923 45.0136 359.243 47.5365 359.243 47.5365Z" fill="#F7A491"/>
<path d="M355.587 43.6467C356.796 43.9062 357.896 44.5333 358.736 45.4421C359.492 45.532 360.523 45.9506 361.587 47.7127C362.895 49.8777 361.929 52.2774 360.414 53.4548C358.898 54.6322 358.914 55.9973 358.914 55.9973L358.673 55.2932C358.49 54.7613 358.424 54.1965 358.477 53.6367C358.506 53.2932 358.589 52.9565 358.724 52.6393C359.09 51.857 357.942 51.3309 357.613 50.6835C357.365 50.1789 357.353 49.027 356.96 48.1938L356.492 47.5582C356.492 47.5582 355.411 46.7192 354.355 46.9558C353.299 47.1925 353.445 43.2106 355.587 43.6467Z" fill="#0E2E35"/>
<path d="M357.68 51.632C357.668 52.295 357.969 52.8387 358.353 52.8446C358.736 52.8505 359.055 52.3185 359.065 51.6555C359.074 50.9925 358.775 50.4507 358.392 50.4449C358.009 50.439 357.69 50.9768 357.68 51.632Z" fill="#F7A491"/>
<path d="M355.423 53.171L353.33 53.0635C353.33 53.0635 353.33 53.8614 354.255 53.9357C355.378 54.0257 355.423 53.171 355.423 53.171Z" fill="white"/>
<path d="M375.736 90.2369C375.742 90.1856 375.742 90.1337 375.736 90.0824C375.572 88.4141 374.187 74.4109 373.954 73.8164C373.743 73.2785 367.533 64.3975 367.533 64.3975L364.482 68.5554L370.453 76.5212C370.588 77.0277 372.742 86.4799 372.742 86.4799C372.742 86.4799 373.184 88.2029 373.381 89.2356C373.291 89.4839 373.203 89.7186 373.125 89.9123C372.944 90.2769 372.729 90.6234 372.482 90.9468C372.179 91.3666 371.923 91.8185 371.719 92.2944C371.656 92.5388 371.541 93.0434 371.476 93.3485C371.412 93.6536 371.324 94.0096 371.31 94.1738C371.268 94.3308 371.202 94.4805 371.114 94.6178C371.087 94.6648 371.074 94.7191 371.078 94.7736C371.081 94.8281 371.102 94.8802 371.136 94.9227C371.17 94.9653 371.217 94.9963 371.269 95.0118C371.322 95.0272 371.377 95.0262 371.429 95.0089C371.646 94.9366 371.82 94.655 371.918 94.4809C372.212 93.9861 372.37 93.0845 372.442 93.1314C372.515 93.1784 372.773 94.7097 372.814 94.8916C372.855 95.0735 373.164 96.8474 373.338 97.1661C373.512 97.4849 373.743 97.436 373.804 97.2326C373.864 97.0292 373.608 94.5709 373.608 94.5709C373.608 94.5709 373.577 94.254 373.716 94.3538C373.854 94.4535 374.081 96.7007 374.179 97.039C374.277 97.3774 374.496 97.5456 374.682 97.2796C374.909 96.9569 374.517 94.563 374.517 94.563C374.517 94.563 374.474 94.2618 374.604 94.2892C374.733 94.3166 374.893 96.245 374.995 96.4073C375.018 96.4535 375.055 96.4915 375.1 96.5163C375.146 96.541 375.198 96.5513 375.249 96.5458C375.3 96.5403 375.349 96.5192 375.388 96.4853C375.427 96.4515 375.455 96.4066 375.468 96.3565C375.609 96.0298 375.243 93.8961 375.243 93.8961C375.243 93.8961 375.261 93.726 375.341 93.7827C375.421 93.8394 375.675 95.4685 375.842 95.6191C375.858 95.6366 375.878 95.6504 375.899 95.6599C375.921 95.6694 375.945 95.6743 375.969 95.6743C375.993 95.6743 376.016 95.6694 376.038 95.6599C376.06 95.6504 376.08 95.6366 376.096 95.6191C376.401 95.4118 375.933 93.859 375.939 93.0904C375.945 92.3217 375.585 91.4534 375.693 90.5342C375.701 90.4677 375.724 90.3269 375.736 90.2369Z" fill="#F8A492"/>
<path d="M372.387 70.016L367.083 73.5775C367.083 73.5775 364.093 69.1281 362.487 67.544C360.476 65.5608 363.22 59.4823 364.515 59.8265C367.413 60.601 372.387 70.016 372.387 70.016Z" fill="#F47458"/>
<path d="M401.027 114.455C402.601 109.679 404.364 109.882 404.364 109.882L402.995 119.925C402.017 119.659 400.757 119.066 399.785 118.793C400.125 117.326 400.54 115.879 401.027 114.455Z" fill="#47637F"/>
<path d="M401.517 102.035C402 98.8944 404.842 96.6355 407.814 98.1591C408.588 98.5718 409.278 99.1249 409.848 99.7902C411.096 101.392 411.413 103.371 412.706 104.926C412.16 105.339 411.582 105.706 410.977 106.025L410.175 104.953L410.451 106.289C408.456 107.246 405.638 108.032 401.783 108.01C401.335 106.051 401.245 104.027 401.517 102.035Z" fill="#F7CC7F"/>
<path d="M408.392 109.025C408.392 109.025 410.949 108.691 412.097 109.945C413.245 111.198 409.894 121.266 409.687 122.862C409.48 124.458 411.152 128.458 411.152 128.458C411.152 128.458 403.843 129.827 401.895 128.54C401.895 128.54 401.78 117.308 401.987 116.168C402.195 115.028 403.943 110.392 404.354 109.937C404.764 109.481 408.392 109.025 408.392 109.025Z" fill="#13375B"/>
<path d="M407.427 105.139C407.427 105.139 407.443 105.225 407.47 105.37C407.599 106.07 408.098 108.39 408.435 109.027C408.839 109.798 407.042 112.254 405.305 111.961C404.789 111.871 405.74 109.702 405.697 109.473C405.608 109.033 405.489 108.433 405.368 107.819C405.299 107.47 405.231 107.12 405.172 106.788C404.977 105.849 404.836 105.081 404.836 105.081L407.427 105.139Z" fill="#F7A491"/>
<path opacity="0.5" d="M407.468 105.372L407.425 105.139L404.832 105.075C404.832 105.075 404.983 105.843 405.168 106.782C405.233 107.113 405.301 107.461 405.364 107.807C405.828 107.725 406.259 107.509 406.602 107.185C407.031 106.807 407.355 106.325 407.541 105.785C407.515 105.62 407.488 105.48 407.468 105.372Z" fill="#F47458"/>
<path d="M405.68 99.229C405.68 99.229 406.904 99.0882 407.671 100.082C408.437 101.075 409.263 104.148 407.358 105.818C405.453 107.488 403.574 105.597 403.294 103.592C403.014 101.588 402.907 99.1567 405.68 99.229Z" fill="#F7A491"/>
<path d="M402.731 103.563C402.958 104.007 403.339 104.251 403.584 104.11C403.828 103.97 403.84 103.498 403.613 103.054C403.386 102.61 403.003 102.366 402.761 102.507C402.518 102.647 402.496 103.121 402.731 103.563Z" fill="#F7A491"/>
<path d="M405.543 98.9002C405.543 98.9002 407.178 101.822 408.346 101.957C409.513 102.092 409.668 103.645 409.668 103.645C409.668 103.645 409.251 100.068 408.093 99.3774C406.935 98.687 405.543 98.9002 405.543 98.9002Z" fill="#F7CC7F"/>
<path d="M408.04 102.692C407.944 103.211 408.136 103.686 408.467 103.754C408.797 103.823 409.143 103.457 409.237 102.939C409.331 102.421 409.141 101.943 408.811 101.875C408.48 101.806 408.134 102.172 408.04 102.692Z" fill="#F7A491"/>
<path d="M406.604 104.576L404.844 104.924C404.902 105.12 405.034 105.286 405.212 105.386C405.391 105.486 405.601 105.512 405.798 105.458C406.741 105.298 406.604 104.576 406.604 104.576Z" fill="white"/>
<path d="M411.635 109.596C411.635 109.596 412.599 110.054 413.448 112.029C414.254 113.907 414.491 123.279 414.491 123.279L410.97 122.692L409.664 118.37C409.259 116.659 408.805 112.71 410.493 110.4C410.947 109.79 411.361 109.418 411.635 109.596Z" fill="#47637F"/>
<path d="M99.1277 160.687C99.2407 158.83 98.8892 156.974 98.1048 155.287C97.393 153.806 95.6328 152.967 94.0271 152.965C88.9304 152.965 88.2811 159.693 85.0306 162.292C84.0391 163.075 82.9321 163.732 81.9933 164.588C78.5277 167.749 80.0884 173.601 83.2704 176.372C85.4785 178.296 88.9421 179.388 91.6685 177.886C93.0883 177.103 94.166 175.795 94.9346 174.365C96.0259 172.335 96.728 169.996 97.5025 167.833C98.3337 165.539 99.026 163.145 99.1277 160.687Z" fill="#F7CC7F"/>
<path d="M97.2202 177.7C97.2202 177.7 93.4143 173.788 92.4345 172.098C91.4546 170.409 93.1014 171.512 94.7814 171.062C95.4189 170.892 95.2566 167.16 96.4614 168.373C98.4367 170.364 100.92 173.849 100.92 173.849L97.2202 177.7Z" fill="#F47458"/>
<path d="M91.8085 166.66C91.8085 166.66 88.3996 165.987 86.835 167.289C85.2704 168.592 87.1694 180.172 87.1675 182.092C87.1655 184.013 86.0977 189.028 86.0977 189.028C86.0977 189.028 96.4632 191.249 98.0982 188.366C98.0982 188.366 98.5656 177.387 98.4893 176.006C98.413 174.625 96.8836 168.977 96.4592 168.379C96.0348 167.78 91.8085 166.66 91.8085 166.66Z" fill="#B75742"/>
<path d="M91.788 161.375C91.788 161.375 91.7685 161.477 91.7372 161.651C91.5827 162.486 90.9842 165.251 90.5813 166.012C90.0944 166.931 92.2496 169.863 94.3246 169.505C94.9407 169.398 93.8025 166.812 93.8572 166.536C93.9609 166.012 94.1036 165.296 94.2484 164.563C94.3286 164.15 94.4127 163.73 94.4909 163.335C94.7119 162.214 94.8938 161.297 94.8938 161.297L91.788 161.375Z" fill="#F7A491"/>
<path d="M91.7365 161.651C91.7677 161.477 91.7873 161.375 91.7873 161.375L94.895 161.297C94.895 161.297 94.7131 162.214 94.4921 163.335L94.2496 164.557C93.6931 164.459 93.1773 164.201 92.7652 163.814C92.252 163.365 91.865 162.79 91.6426 162.146C91.6797 161.95 91.713 161.78 91.7365 161.651Z" fill="#F47458"/>
<path d="M93.8771 154.324C93.8771 154.324 92.4122 154.154 91.4949 155.341C90.5777 156.528 89.5861 160.192 91.8665 162.186C94.147 164.181 96.4019 161.922 96.7364 159.531C97.0708 157.139 97.2018 154.238 93.8771 154.324Z" fill="#F7A491"/>
<path d="M96.1619 153.722C96.1619 153.722 93.3065 157.813 90.586 157.266L90.5117 155.519L90.7621 154.858L92.1311 153.974L94.3704 153.464L96.1619 153.722Z" fill="#F7CC7F"/>
<path d="M97.4123 159.493C97.1404 160.021 96.6828 160.315 96.3914 160.147C96.1 159.978 96.0843 159.417 96.3562 158.887C96.628 158.357 97.0857 158.068 97.3771 158.234C97.6685 158.4 97.6841 158.965 97.4123 159.493Z" fill="#F7A491"/>
<path d="M91.0524 158.455C91.1659 159.075 90.9371 159.642 90.54 159.722C90.143 159.803 89.7304 159.368 89.6169 158.745C89.5035 158.121 89.7323 157.557 90.1293 157.475C90.5264 157.393 90.9429 157.829 91.0524 158.455Z" fill="#F7A491"/>
<path d="M94.7607 160.866L92.6094 160.757C92.6094 160.757 92.6094 161.574 93.5599 161.651C94.7138 161.741 94.7607 160.866 94.7607 160.866Z" fill="white"/>
<path d="M94.7607 160.866L92.6094 160.757C92.6094 160.757 92.6094 161.574 93.5599 161.651C94.7138 161.741 94.7607 160.866 94.7607 160.866Z" fill="white"/>
<path d="M88.1205 177.563C88.1205 177.563 85.8773 172.591 85.537 170.663C85.1967 168.734 86.8513 166.313 88.586 166.47C90.3208 166.626 92.918 175.206 92.918 175.206L88.1205 177.563Z" fill="#F47458"/>
</g>
<defs>
<clipPath id="clip0_128_2486">
<rect width="452.163" height="350" fill="white"/>
</clipPath>
</defs>
</svg>
