<svg width="194" height="52" viewBox="0 0 194 52" fill="none" xmlns="http://www.w3.org/2000/svg">
<path d="M73.216 36.182C71.8813 36.182 70.6853 35.9653 69.628 35.532C68.5707 35.0987 67.7213 34.4573 67.08 33.608C66.456 32.7587 66.1267 31.736 66.092 30.54H70.824C70.8933 31.216 71.1273 31.736 71.526 32.1C71.9247 32.4467 72.4447 32.62 73.086 32.62C73.7447 32.62 74.2647 32.4727 74.646 32.178C75.0273 31.866 75.218 31.4413 75.218 30.904C75.218 30.4533 75.062 30.0807 74.75 29.786C74.4553 29.4913 74.0827 29.2487 73.632 29.058C73.1987 28.8673 72.5747 28.6507 71.76 28.408C70.5813 28.044 69.6193 27.68 68.874 27.316C68.1287 26.952 67.4873 26.4147 66.95 25.704C66.4127 24.9933 66.144 24.066 66.144 22.922C66.144 21.2233 66.7593 19.8973 67.99 18.944C69.2207 17.9733 70.824 17.488 72.8 17.488C74.8107 17.488 76.4313 17.9733 77.662 18.944C78.8927 19.8973 79.5513 21.232 79.638 22.948H74.828C74.7933 22.3587 74.5767 21.8993 74.178 21.57C73.7793 21.2233 73.268 21.05 72.644 21.05C72.1067 21.05 71.6733 21.1973 71.344 21.492C71.0147 21.7693 70.85 22.1767 70.85 22.714C70.85 23.3033 71.1273 23.7627 71.682 24.092C72.2367 24.4213 73.1033 24.7767 74.282 25.158C75.4607 25.5567 76.414 25.938 77.142 26.302C77.8873 26.666 78.5287 27.1947 79.066 27.888C79.6033 28.5813 79.872 29.474 79.872 30.566C79.872 31.606 79.6033 32.5507 79.066 33.4C78.546 34.2493 77.7833 34.9253 76.778 35.428C75.7727 35.9307 74.5853 36.182 73.216 36.182ZM87.0541 23.546C87.4874 22.87 88.0854 22.324 88.8481 21.908C89.6108 21.492 90.5034 21.284 91.5261 21.284C92.7221 21.284 93.8054 21.5873 94.7761 22.194C95.7468 22.8007 96.5094 23.6673 97.0641 24.794C97.6361 25.9207 97.9221 27.2293 97.9221 28.72C97.9221 30.2107 97.6361 31.528 97.0641 32.672C96.5094 33.7987 95.7468 34.674 94.7761 35.298C93.8054 35.9047 92.7221 36.208 91.5261 36.208C90.5208 36.208 89.6281 36 88.8481 35.584C88.0854 35.168 87.4874 34.6307 87.0541 33.972V42.916H82.6081V21.492H87.0541V23.546ZM93.3981 28.72C93.3981 27.6107 93.0861 26.744 92.4621 26.12C91.8554 25.4787 91.1014 25.158 90.2001 25.158C89.3161 25.158 88.5621 25.4787 87.9381 26.12C87.3314 26.7613 87.0281 27.6367 87.0281 28.746C87.0281 29.8553 87.3314 30.7307 87.9381 31.372C88.5621 32.0133 89.3161 32.334 90.2001 32.334C91.0841 32.334 91.8381 32.0133 92.4621 31.372C93.0861 30.7133 93.3981 29.8293 93.3981 28.72ZM113.931 28.512C113.931 28.928 113.905 29.3613 113.853 29.812H103.791C103.86 30.7133 104.146 31.4067 104.649 31.892C105.169 32.36 105.801 32.594 106.547 32.594C107.656 32.594 108.427 32.126 108.861 31.19H113.593C113.35 32.1433 112.908 33.0013 112.267 33.764C111.643 34.5267 110.854 35.1247 109.901 35.558C108.947 35.9913 107.881 36.208 106.703 36.208C105.281 36.208 104.016 35.9047 102.907 35.298C101.797 34.6913 100.931 33.8247 100.307 32.698C99.6826 31.5713 99.3706 30.254 99.3706 28.746C99.3706 27.238 99.6739 25.9207 100.281 24.794C100.905 23.6673 101.771 22.8007 102.881 22.194C103.99 21.5873 105.264 21.284 106.703 21.284C108.107 21.284 109.355 21.5787 110.447 22.168C111.539 22.7573 112.388 23.598 112.995 24.69C113.619 25.782 113.931 27.056 113.931 28.512ZM109.381 27.342C109.381 26.5793 109.121 25.9727 108.601 25.522C108.081 25.0713 107.431 24.846 106.651 24.846C105.905 24.846 105.273 25.0627 104.753 25.496C104.25 25.9293 103.938 26.5447 103.817 27.342H109.381ZM115.392 28.72C115.392 27.2293 115.669 25.9207 116.224 24.794C116.796 23.6673 117.567 22.8007 118.538 22.194C119.509 21.5873 120.592 21.284 121.788 21.284C122.811 21.284 123.703 21.492 124.466 21.908C125.246 22.324 125.844 22.87 126.26 23.546V21.492H130.706V36H126.26V33.946C125.827 34.622 125.22 35.168 124.44 35.584C123.677 36 122.785 36.208 121.762 36.208C120.583 36.208 119.509 35.9047 118.538 35.298C117.567 34.674 116.796 33.7987 116.224 32.672C115.669 31.528 115.392 30.2107 115.392 28.72ZM126.26 28.746C126.26 27.6367 125.948 26.7613 125.324 26.12C124.717 25.4787 123.972 25.158 123.088 25.158C122.204 25.158 121.45 25.4787 120.826 26.12C120.219 26.744 119.916 27.6107 119.916 28.72C119.916 29.8293 120.219 30.7133 120.826 31.372C121.45 32.0133 122.204 32.334 123.088 32.334C123.972 32.334 124.717 32.0133 125.324 31.372C125.948 30.7307 126.26 29.8553 126.26 28.746ZM142.789 36L138.369 29.916V36H133.923V16.76H138.369V27.394L142.763 21.492H148.249L142.217 28.772L148.301 36H142.789ZM156.599 36.208C155.177 36.208 153.895 35.9047 152.751 35.298C151.624 34.6913 150.731 33.8247 150.073 32.698C149.431 31.5713 149.111 30.254 149.111 28.746C149.111 27.2553 149.44 25.9467 150.099 24.82C150.757 23.676 151.659 22.8007 152.803 22.194C153.947 21.5873 155.229 21.284 156.651 21.284C158.072 21.284 159.355 21.5873 160.499 22.194C161.643 22.8007 162.544 23.676 163.203 24.82C163.861 25.9467 164.191 27.2553 164.191 28.746C164.191 30.2367 163.853 31.554 163.177 32.698C162.518 33.8247 161.608 34.6913 160.447 35.298C159.303 35.9047 158.02 36.208 156.599 36.208ZM156.599 32.36C157.448 32.36 158.167 32.048 158.757 31.424C159.363 30.8 159.667 29.9073 159.667 28.746C159.667 27.5847 159.372 26.692 158.783 26.068C158.211 25.444 157.5 25.132 156.651 25.132C155.784 25.132 155.065 25.444 154.493 26.068C153.921 26.6747 153.635 27.5673 153.635 28.746C153.635 29.9073 153.912 30.8 154.467 31.424C155.039 32.048 155.749 32.36 156.599 32.36ZM180.876 21.492V36H176.43V34.024C175.979 34.6653 175.364 35.1853 174.584 35.584C173.821 35.9653 172.972 36.156 172.036 36.156C170.926 36.156 169.947 35.9133 169.098 35.428C168.248 34.9253 167.59 34.206 167.122 33.27C166.654 32.334 166.42 31.2333 166.42 29.968V21.492H170.84V29.37C170.84 30.3407 171.091 31.0947 171.594 31.632C172.096 32.1693 172.772 32.438 173.622 32.438C174.488 32.438 175.173 32.1693 175.676 31.632C176.178 31.0947 176.43 30.3407 176.43 29.37V21.492H180.876ZM192.155 32.23V36H189.893C188.281 36 187.024 35.61 186.123 34.83C185.222 34.0327 184.771 32.7413 184.771 30.956V25.184H183.003V21.492H184.771V17.956H189.217V21.492H192.129V25.184H189.217V31.008C189.217 31.4413 189.321 31.7533 189.529 31.944C189.737 32.1347 190.084 32.23 190.569 32.23H192.155Z" fill="#1A3849"/>
<rect width="52" height="52" rx="5" fill="#1A3849"/>
<path d="M17.808 32.5202H27.472V37.0002H11.6V32.8402L21.2 19.0162H11.6V14.5362H27.472V18.6962L17.808 32.5202ZM36.5185 22.1202C37.1585 21.1389 37.9585 20.3709 38.9185 19.8162C39.8785 19.2402 40.9452 18.9522 42.1185 18.9522V24.7442H40.6145C39.2492 24.7442 38.2252 25.0429 37.5425 25.6402C36.8598 26.2162 36.5185 27.2402 36.5185 28.7122V37.0002H31.0465V19.1442H36.5185V22.1202Z" fill="#9BD08F"/>
</svg>
