<svg width="28" height="28" viewBox="0 0 28 28" fill="none" xmlns="http://www.w3.org/2000/svg">
<path d="M22.6677 15.1433C22.7143 14.7699 22.7493 14.3966 22.7493 13.9999C22.7493 13.6033 22.7143 13.2299 22.6677 12.8566L25.1293 10.9316C25.351 10.7566 25.4093 10.4416 25.2693 10.1849L22.936 6.14825C22.831 5.96159 22.6327 5.85659 22.4227 5.85659C22.3527 5.85659 22.2827 5.86825 22.2243 5.89159L19.3193 7.05825C18.7127 6.59159 18.0593 6.20659 17.3477 5.91492L16.9043 2.82325C16.8693 2.54325 16.6243 2.33325 16.3327 2.33325H11.666C11.3743 2.33325 11.1293 2.54325 11.0943 2.82325L10.651 5.91492C9.93932 6.20659 9.28599 6.60325 8.67932 7.05825L5.77432 5.89159C5.70432 5.86825 5.63432 5.85659 5.56432 5.85659C5.36599 5.85659 5.16766 5.96159 5.06266 6.14825L2.72932 10.1849C2.57766 10.4416 2.64766 10.7566 2.86932 10.9316L5.33099 12.8566C5.28432 13.2299 5.24932 13.6149 5.24932 13.9999C5.24932 14.3849 5.28432 14.7699 5.33099 15.1433L2.86932 17.0683C2.64766 17.2433 2.58932 17.5583 2.72932 17.8149L5.06266 21.8516C5.16766 22.0383 5.36599 22.1433 5.57599 22.1433C5.64599 22.1433 5.71599 22.1316 5.77432 22.1083L8.67932 20.9416C9.28599 21.4083 9.93932 21.7933 10.651 22.0849L11.0943 25.1766C11.1293 25.4566 11.3743 25.6666 11.666 25.6666H16.3327C16.6243 25.6666 16.8693 25.4566 16.9043 25.1766L17.3477 22.0849C18.0593 21.7933 18.7127 21.3966 19.3193 20.9416L22.2243 22.1083C22.2943 22.1316 22.3643 22.1433 22.4343 22.1433C22.6327 22.1433 22.831 22.0383 22.936 21.8516L25.2693 17.8149C25.4093 17.5583 25.351 17.2433 25.1293 17.0683L22.6677 15.1433ZM20.3577 13.1483C20.4043 13.5099 20.416 13.7549 20.416 13.9999C20.416 14.2449 20.3927 14.5016 20.3577 14.8516L20.1943 16.1699L21.2327 16.9866L22.4927 17.9666L21.676 19.3783L20.1943 18.7833L18.981 18.2933L17.931 19.0866C17.4293 19.4599 16.951 19.7399 16.4727 19.9383L15.236 20.4399L15.0493 21.7583L14.816 23.3333H13.1827L12.961 21.7583L12.7743 20.4399L11.5377 19.9383C11.036 19.7283 10.5693 19.4599 10.1027 19.1099L9.04099 18.2933L7.80432 18.7949L6.32266 19.3899L5.50599 17.9783L6.76599 16.9983L7.80432 16.1816L7.64099 14.8633C7.60599 14.5016 7.58266 14.2333 7.58266 13.9999C7.58266 13.7666 7.60599 13.4983 7.64099 13.1483L7.80432 11.8299L6.76599 11.0133L5.50599 10.0333L6.32266 8.62159L7.80432 9.21659L9.01766 9.70659L10.0677 8.91325C10.5693 8.53992 11.0477 8.25992 11.526 8.06159L12.7627 7.55992L12.9493 6.24159L13.1827 4.66659H14.8043L15.026 6.24159L15.2127 7.55992L16.4493 8.06159C16.951 8.27159 17.4177 8.53992 17.8843 8.88992L18.946 9.70659L20.1827 9.20492L21.6643 8.60992L22.481 10.0216L21.2327 11.0133L20.1943 11.8299L20.3577 13.1483ZM13.9993 9.33325C11.421 9.33325 9.33266 11.4216 9.33266 13.9999C9.33266 16.5783 11.421 18.6666 13.9993 18.6666C16.5777 18.6666 18.666 16.5783 18.666 13.9999C18.666 11.4216 16.5777 9.33325 13.9993 9.33325ZM13.9993 16.3333C12.716 16.3333 11.666 15.2833 11.666 13.9999C11.666 12.7166 12.716 11.6666 13.9993 11.6666C15.2827 11.6666 16.3327 12.7166 16.3327 13.9999C16.3327 15.2833 15.2827 16.3333 13.9993 16.3333Z" fill="#323232"/>
</svg>
